<svg width="125" height="43" viewBox="0 0 125 43" fill="none" xmlns="http://www.w3.org/2000/svg">
<rect x="1" y="1" width="122.7" height="40.9091" rx="4" stroke="white" stroke-width="2"/>
<path fill-rule="evenodd" clip-rule="evenodd" d="M46.5166 11.5085V12.3168H44.6188V13.2078H46.4229V14.0161H44.6188V15.6328H43.7051V11.5085H46.5166ZM50.7025 12.8773C50.7025 13.5382 50.4428 13.965 49.9235 14.1577L50.9602 15.6328H49.8356L48.9277 14.317H48.2951V15.6328H47.3814V11.5085H48.9336C49.5701 11.5085 50.024 11.6166 50.2954 11.833C50.5668 12.0493 50.7025 12.3975 50.7025 12.8773ZM49.6013 13.3671C49.7146 13.2648 49.7712 13.1025 49.7712 12.8803C49.7712 12.6581 49.7126 12.5056 49.5955 12.423C49.4783 12.3404 49.2733 12.2991 48.9804 12.2991H48.2951V13.5205H48.9629C49.2753 13.5205 49.4881 13.4694 49.6013 13.3671ZM54.6816 11.5085V12.3287H52.6432V13.1783H54.4766V13.9631H52.6432V14.8186H54.746V15.6329H51.7294V11.5085H54.6816ZM58.6031 11.5085V12.3287H56.5647V13.1783H58.3981V13.9631H56.5647V14.8186H58.6675V15.6329H55.6509V11.5085H58.6031ZM64.3376 12.0484C64.7281 12.4084 64.9234 12.9089 64.9234 13.5501C64.9234 14.1912 64.733 14.6987 64.3523 15.0724C63.9715 15.446 63.3907 15.6329 62.6097 15.6329H61.2097V11.5085H62.6565C63.3868 11.5085 63.9471 11.6885 64.3376 12.0484ZM63.6668 14.5001C63.8913 14.2877 64.0036 13.9789 64.0036 13.5737C64.0036 13.1686 63.8913 12.8568 63.6668 12.6385C63.4422 12.4202 63.0976 12.311 62.6329 12.311H62.1234V14.8187H62.7032C63.1211 14.8187 63.4422 14.7125 63.6668 14.5001ZM68.5868 12.606C68.3525 12.3464 68.0645 12.2166 67.7228 12.2166C67.3811 12.2166 67.0931 12.3464 66.8588 12.606C66.6245 12.8656 66.5074 13.1793 66.5074 13.5471C66.5074 13.9149 66.6245 14.2276 66.8588 14.4852C67.0931 14.7429 67.3811 14.8717 67.7228 14.8717C68.0645 14.8717 68.3525 14.7429 68.5868 14.4852C68.8211 14.2276 68.9382 13.9149 68.9382 13.5471C68.9382 13.1793 68.8211 12.8656 68.5868 12.606ZM67.72 15.6741C67.1147 15.6741 66.6052 15.4706 66.1912 15.0634C65.7773 14.6563 65.5703 14.1499 65.5703 13.5441C65.5703 12.9383 65.7773 12.4319 66.1912 12.0247C66.6052 11.6176 67.1147 11.4141 67.72 11.4141C68.3253 11.4141 68.8349 11.6176 69.2488 12.0247C69.6627 12.4319 69.8697 12.9383 69.8697 13.5441C69.8697 14.1499 69.6627 14.6563 69.2488 15.0634C68.8349 15.4706 68.3253 15.6741 67.72 15.6741ZM71.9455 13.8805L72.6717 11.5085H73.6262L74.3465 13.8805L75.1605 11.5085H76.1502L74.7213 15.6329H74.042L73.146 12.7653L72.2559 15.6329H71.5766L70.1477 11.5085H71.1374L71.9455 13.8805ZM79.5921 11.5085H80.5058V15.6329H79.5921L77.6415 13.0485V15.6329H76.7278V11.5085H77.583L79.5921 14.1637V11.5085ZM81.6039 15.6329V11.5085H82.5176V14.8127H84.2632V15.6329H81.6039ZM87.6924 12.606C87.4581 12.3464 87.1701 12.2166 86.8284 12.2166C86.4867 12.2166 86.1987 12.3464 85.9644 12.606C85.7301 12.8656 85.613 13.1793 85.613 13.5471C85.613 13.9149 85.7301 14.2276 85.9644 14.4852C86.1987 14.7429 86.4867 14.8717 86.8284 14.8717C87.1701 14.8717 87.4581 14.7429 87.6924 14.4852C87.9267 14.2276 88.0438 13.9149 88.0438 13.5471C88.0438 13.1793 87.9267 12.8656 87.6924 12.606ZM86.8256 15.6741C86.2204 15.6741 85.7108 15.4706 85.2968 15.0634C84.8829 14.6563 84.6759 14.1499 84.6759 13.5441C84.6759 12.9383 84.8829 12.4319 85.2968 12.0247C85.7108 11.6176 86.2204 11.4141 86.8256 11.4141C87.4309 11.4141 87.9405 11.6176 88.3544 12.0247C88.7683 12.4319 88.9753 12.9383 88.9753 13.5441C88.9753 14.1499 88.7683 14.6563 88.3544 15.0634C87.9405 15.4706 87.4309 15.6741 86.8256 15.6741ZM92.633 15.6329L92.2523 14.7419H90.5361L90.1553 15.6329H89.183L90.9519 11.5085H91.8364L93.6054 15.6329H92.633ZM91.3968 12.7358L90.8814 13.9336H91.9064L91.3968 12.7358ZM97.2983 12.0484C97.6888 12.4084 97.884 12.9089 97.884 13.5501C97.884 14.1912 97.6937 14.6987 97.3129 15.0724C96.9322 15.446 96.3513 15.6329 95.5703 15.6329H94.1704V11.5085H95.6172C96.3474 11.5085 96.9078 11.6885 97.2983 12.0484ZM96.6272 14.5001C96.8518 14.2877 96.964 13.9789 96.964 13.5737C96.964 13.1686 96.8518 12.8568 96.6272 12.6385C96.4027 12.4202 96.0581 12.311 95.5934 12.311H95.0838V14.8187H95.6637C96.0815 14.8187 96.4027 14.7125 96.6272 14.5001Z" fill="white"/>
<path fill-rule="evenodd" clip-rule="evenodd" d="M45.4968 28.1797L44.6769 30.056H43.2012L46.8086 21.8073H48.2843L51.8917 30.056H50.4159L49.5961 28.1797H45.4968ZM49.0352 26.8934L47.5474 23.4948L46.0596 26.8934H49.0352ZM58.3218 24.5568C58.9153 25.139 59.212 25.9139 59.212 26.8816C59.212 27.8492 58.9172 28.636 58.3277 29.2417C57.7382 29.8475 57.0511 30.1504 56.2663 30.1504C55.4816 30.1504 54.7769 29.8042 54.1523 29.1119V32.3453H52.8405V23.778H54.1523V24.8755C54.6676 24.0809 55.343 23.6836 56.1785 23.6836C57.014 23.6836 57.7284 23.9747 58.3218 24.5568ZM54.6677 28.398C55.0269 28.7796 55.4643 28.9703 55.9797 28.9703C56.4952 28.9703 56.9443 28.7815 57.327 28.4039C57.7096 28.0263 57.901 27.5366 57.901 26.9347C57.901 26.3329 57.7135 25.8333 57.3387 25.436C56.9638 25.0387 56.5147 24.8401 55.9915 24.8401C55.4682 24.8401 55.0269 25.0387 54.6677 25.436C54.3084 25.8333 54.1288 26.3309 54.1288 26.9288C54.1288 27.5267 54.3084 28.0164 54.6677 28.398ZM66.1924 24.5568C66.7858 25.139 67.0825 25.9139 67.0825 26.8816C67.0825 27.8492 66.7878 28.636 66.1983 29.2417C65.6087 29.8475 64.9216 30.1504 64.1369 30.1504C63.3522 30.1504 62.6475 29.8042 62.0228 29.1119V32.3453H60.7111V23.778H62.0228V24.8755C62.5382 24.0809 63.2136 23.6836 64.0491 23.6836C64.8845 23.6836 65.599 23.9747 66.1924 24.5568ZM62.5385 28.398C62.8977 28.7796 63.3351 28.9703 63.8505 28.9703C64.366 28.9703 64.8151 28.7815 65.1978 28.4039C65.5804 28.0263 65.7718 27.5366 65.7718 26.9347C65.7718 26.3329 65.5844 25.8333 65.2095 25.436C64.8346 25.0387 64.3855 24.8401 63.8623 24.8401C63.339 24.8401 62.8977 25.0387 62.5385 25.436C62.1792 25.8333 61.9996 26.3309 61.9996 26.9288C61.9996 27.5267 62.1792 28.0164 62.5385 28.398ZM73.4658 23.1408C73.2081 23.306 73.0793 23.5558 73.0793 23.8901C73.0793 24.2245 73.2081 24.4802 73.4658 24.6572C73.7235 24.8342 74.272 25.025 75.1114 25.2295C75.9508 25.4341 76.5832 25.7212 77.0088 26.091C77.4343 26.4607 77.6471 27.0055 77.6471 27.7254C77.6471 28.4452 77.3777 29.0293 76.8389 29.4778C76.3002 29.9262 75.5935 30.1504 74.719 30.1504C73.4385 30.1504 72.3024 29.7059 71.3108 28.8169L72.1775 27.7667C73.0051 28.4904 73.864 28.8523 74.7542 28.8523C75.1992 28.8523 75.5526 28.7559 75.8141 28.5632C76.0757 28.3705 76.2065 28.1148 76.2065 27.7962C76.2065 27.4775 76.0835 27.2297 75.8376 27.0527C75.5916 26.8757 75.168 26.7144 74.5668 26.5689C73.9655 26.4233 73.5088 26.2896 73.1964 26.1677C72.8841 26.0457 72.6069 25.8864 72.3649 25.6897C71.8808 25.32 71.6387 24.7535 71.6387 23.9904C71.6387 23.2273 71.9139 22.6393 72.4644 22.2262C73.0149 21.8132 73.6962 21.6067 74.5082 21.6067C75.0314 21.6067 75.5506 21.6932 76.0659 21.8663C76.5813 22.0394 77.0263 22.2833 77.4011 22.5979L76.6633 23.6482C76.4212 23.4279 76.0933 23.247 75.6794 23.1054C75.2656 22.9638 74.8576 22.893 74.4555 22.893C74.0534 22.893 73.7235 22.9756 73.4658 23.1408ZM80.7864 24.8402V28.0263C80.7864 28.3253 80.8645 28.5633 81.0207 28.7403C81.1769 28.9173 81.3956 29.0058 81.6768 29.0058C81.9579 29.0058 82.2274 28.8681 82.4851 28.5928L83.024 29.525C82.5632 29.942 82.0536 30.1505 81.4952 30.1505C80.9368 30.1505 80.4604 29.9558 80.066 29.5663C79.6716 29.1769 79.4744 28.6518 79.4744 27.9909V24.8402H78.6895V23.7781H79.4744V21.8074H80.7864V23.7781H82.4265V24.8402H80.7864ZM86.9352 28.9704C87.5054 28.9704 87.9759 28.7796 88.3469 28.3981C88.7179 28.0165 88.9033 27.5229 88.9033 26.9171C88.9033 26.3113 88.7179 25.8177 88.3469 25.4361C87.9759 25.0545 87.5054 24.8638 86.9352 24.8638C86.3651 24.8638 85.8946 25.0545 85.5236 25.4361C85.1526 25.8177 84.9671 26.3113 84.9671 26.9171C84.9671 27.5229 85.1526 28.0165 85.5236 28.3981C85.8946 28.7796 86.3651 28.9704 86.9352 28.9704ZM86.9349 30.1504C85.9979 30.1504 85.2171 29.8377 84.5924 29.2122C83.9677 28.5868 83.6554 27.8217 83.6554 26.917C83.6554 26.0123 83.9677 25.2472 84.5924 24.6217C85.2171 23.9963 85.9979 23.6836 86.9349 23.6836C87.8718 23.6836 88.6527 23.9963 89.2773 24.6217C89.902 25.2472 90.2143 26.0123 90.2143 26.917C90.2143 27.8217 89.902 28.5868 89.2773 29.2122C88.6527 29.8377 87.8718 30.1504 86.9349 30.1504ZM94.9702 25.0171C94.3219 25.0171 93.8338 25.2295 93.5058 25.6543C93.1778 26.0791 93.0138 26.6495 93.0138 27.3654V30.056H91.7017V23.778H93.0138V25.0407C93.2247 24.6473 93.5117 24.3248 93.8748 24.073C94.238 23.8213 94.6226 23.6915 95.0288 23.6836L95.0405 25.0171H94.9702ZM102.149 27.4952H97.2652C97.2965 27.9515 97.5034 28.3193 97.886 28.5986C98.2686 28.8779 98.7058 29.0175 99.1978 29.0175C99.9786 29.0175 100.572 28.7697 100.978 28.2741L101.728 29.1001C101.056 29.8003 100.182 30.1504 99.1041 30.1504C98.2295 30.1504 97.4858 29.8573 96.8729 29.2712C96.2599 28.6851 95.9535 27.8984 95.9535 26.9111C95.9535 25.9238 96.2658 25.139 96.8904 24.5568C97.5151 23.9747 98.251 23.6836 99.0982 23.6836C99.9454 23.6836 100.666 23.9412 101.259 24.4565C101.853 24.9718 102.149 25.6818 102.149 26.5866V27.4952ZM97.2652 26.4567H100.838C100.838 25.9296 100.674 25.5244 100.346 25.2412C100.018 24.958 99.614 24.8164 99.1337 24.8164C98.6534 24.8164 98.2219 24.9639 97.8392 25.2589C97.4565 25.554 97.2652 25.9532 97.2652 26.4567Z" fill="white"/>
<path fill-rule="evenodd" clip-rule="evenodd" d="M28.2925 8.25282C28.29 8.22203 28.2875 8.1909 28.2854 8.15918C28.2549 8.16139 28.2305 8.16257 28.2074 8.16368L28.2028 8.1639C27.7629 8.19814 27.3404 8.31148 26.9319 8.47677C26.151 8.792 25.4585 9.23828 24.9057 9.88881C24.1864 10.7341 23.7232 11.6952 23.6429 12.8239C23.6278 13.0399 23.6336 13.256 23.6627 13.4744C23.6698 13.4753 23.6765 13.4763 23.683 13.4774C23.6938 13.4791 23.7042 13.4807 23.7151 13.4815C24.0084 13.4968 24.2993 13.4791 24.588 13.4177C25.0733 13.3138 25.5167 13.1084 25.9275 12.8286C26.492 12.4437 26.9645 11.962 27.3649 11.4059C28.005 10.5169 28.346 9.5299 28.3029 8.4201C28.3014 8.36438 28.297 8.30915 28.2925 8.25282ZM32.2719 15.8146C32.3077 15.7907 32.3437 15.7667 32.3797 15.7424C32.3762 15.7371 32.373 15.7321 32.3698 15.727C32.3666 15.722 32.3634 15.717 32.3599 15.7117C31.7268 14.8109 30.8865 14.1946 29.8577 13.838C29.419 13.6869 28.9685 13.5913 28.51 13.5334C28.2039 13.4956 27.8955 13.4744 27.5871 13.498C27.0133 13.5417 26.4593 13.6798 25.9158 13.864C25.6393 13.9583 25.3631 14.0542 25.0867 14.1502C24.7955 14.2514 24.504 14.3526 24.212 14.452C23.9955 14.5263 23.7779 14.57 23.5451 14.5122C23.1613 14.4168 22.7896 14.2858 22.4182 14.1548L22.3871 14.1438C22.3616 14.1348 22.3361 14.1258 22.3106 14.1167C21.952 13.9899 21.5932 13.863 21.2314 13.7495C20.8928 13.6432 20.5448 13.5736 20.1886 13.5523C19.8698 13.5322 19.5544 13.5629 19.239 13.6113C18.3417 13.7495 17.5328 14.1049 16.8031 14.6468C16.0559 15.2017 15.4938 15.9136 15.0701 16.7436C14.6069 17.6503 14.3835 18.622 14.3148 19.6349C14.2718 20.2713 14.2927 20.9053 14.3625 21.5381C14.4312 22.1639 14.5511 22.7801 14.7094 23.3894C15.2913 25.6219 16.355 27.5912 17.8738 29.3079C18.2497 29.7329 18.6664 30.1131 19.1703 30.3799C19.63 30.6231 20.1142 30.7105 20.6286 30.6302C21.0406 30.5652 21.4363 30.4425 21.8238 30.2913C21.8506 30.2809 21.8775 30.2704 21.9043 30.2599C22.2708 30.1166 22.6376 29.9731 23.0226 29.884C23.5242 29.7671 24.0293 29.7176 24.5414 29.7778C25.0418 29.8368 25.5213 29.9726 25.9868 30.1638C26.4477 30.3527 26.9156 30.5168 27.4079 30.5971C27.949 30.6857 28.4646 30.6089 28.9604 30.3763C29.3712 30.1839 29.7181 29.9017 30.0369 29.583C30.4012 29.2193 30.7108 28.8085 31.0204 28.3964C31.8316 27.3161 32.4682 26.1426 32.9069 24.8592C32.9302 24.7908 32.9535 24.7235 32.9779 24.6538C32.9685 24.6497 32.9614 24.646 32.955 24.6427C32.9504 24.6403 32.9463 24.6381 32.9419 24.6361C32.3879 24.3953 31.8956 24.0588 31.4545 23.642C30.8318 23.0552 30.3721 22.3646 30.1242 21.5369C29.8926 20.7624 29.8507 19.9726 29.9671 19.1733C30.0521 18.5913 30.2429 18.047 30.542 17.5417C30.9145 16.9159 31.4137 16.4142 32.0015 15.9986C32.0901 15.9358 32.1805 15.8755 32.2719 15.8146Z" fill="white"/>
</svg>
