<svg width="125" height="43" viewBox="0 0 125 43" fill="none" xmlns="http://www.w3.org/2000/svg">
<path fill-rule="evenodd" clip-rule="evenodd" d="M1.30029 5C1.30029 2.79086 3.09115 1 5.30029 1H120C122.209 1 124 2.79086 124 5V37.9091C124 40.1182 122.209 41.9091 120 41.9091H5.30029C3.09116 41.9091 1.30029 40.1182 1.30029 37.9091V5Z" stroke="white" stroke-width="2"/>
<path fill-rule="evenodd" clip-rule="evenodd" d="M42.9434 11.5085V12.3168H41.0456V13.2078H42.8497V14.0161H41.0456V15.6328H40.1318V11.5085H42.9434ZM47.1293 12.8773C47.1293 13.5382 46.8696 13.965 46.3502 14.1577L47.387 15.6328H46.2624L45.3545 14.317H44.7219V15.6328H43.8081V11.5085H45.3603C45.9968 11.5085 46.4508 11.6166 46.7222 11.833C46.9936 12.0493 47.1293 12.3975 47.1293 12.8773ZM46.0281 13.3671C46.1413 13.2648 46.1979 13.1025 46.1979 12.8803C46.1979 12.6581 46.1394 12.5056 46.0222 12.423C45.9051 12.3404 45.7001 12.2991 45.4072 12.2991H44.7219V13.5205H45.3896C45.702 13.5205 45.9148 13.4694 46.0281 13.3671ZM51.1084 11.5085V12.3287H49.07V13.1783H50.9033V13.9631H49.07V14.8186H51.1728V15.6329H48.1562V11.5085H51.1084ZM55.0298 11.5085V12.3287H52.9915V13.1783H54.8248V13.9631H52.9915V14.8186H55.0943V15.6329H52.0777V11.5085H55.0298ZM60.7645 12.0484C61.155 12.4084 61.3503 12.9089 61.3503 13.5501C61.3503 14.1912 61.1599 14.6987 60.7792 15.0724C60.3984 15.446 59.8176 15.6329 59.0366 15.6329H57.6366V11.5085H59.0834C59.8137 11.5085 60.374 11.6885 60.7645 12.0484ZM60.0936 14.5001C60.3181 14.2877 60.4304 13.9789 60.4304 13.5737C60.4304 13.1686 60.3181 12.8568 60.0936 12.6385C59.869 12.4202 59.5244 12.311 59.0597 12.311H58.5501V14.8187H59.13C59.5478 14.8187 59.869 14.7125 60.0936 14.5001ZM65.0136 12.606C64.7793 12.3464 64.4913 12.2166 64.1496 12.2166C63.8079 12.2166 63.5199 12.3464 63.2856 12.606C63.0513 12.8656 62.9342 13.1793 62.9342 13.5471C62.9342 13.9149 63.0513 14.2276 63.2856 14.4852C63.5199 14.7429 63.8079 14.8717 64.1496 14.8717C64.4913 14.8717 64.7793 14.7429 65.0136 14.4852C65.2479 14.2276 65.365 13.9149 65.365 13.5471C65.365 13.1793 65.2479 12.8656 65.0136 12.606ZM64.1469 15.6741C63.5416 15.6741 63.0321 15.4706 62.6181 15.0634C62.2042 14.6563 61.9972 14.1499 61.9972 13.5441C61.9972 12.9383 62.2042 12.4319 62.6181 12.0247C63.0321 11.6176 63.5416 11.4141 64.1469 11.4141C64.7522 11.4141 65.2618 11.6176 65.6757 12.0247C66.0896 12.4319 66.2966 12.9383 66.2966 13.5441C66.2966 14.1499 66.0896 14.6563 65.6757 15.0634C65.2618 15.4706 64.7522 15.6741 64.1469 15.6741ZM68.3723 13.8805L69.0985 11.5085H70.053L70.7733 13.8805L71.5873 11.5085H72.577L71.1481 15.6329H70.4688L69.5728 12.7653L68.6827 15.6329H68.0034L66.5745 11.5085H67.5642L68.3723 13.8805ZM76.019 11.5085H76.9327V15.6329H76.019L74.0684 13.0485V15.6329H73.1547V11.5085H74.0098L76.019 14.1637V11.5085ZM78.0305 15.6329V11.5085H78.9443V14.8127H80.6898V15.6329H78.0305ZM84.1192 12.606C83.8849 12.3464 83.5969 12.2166 83.2552 12.2166C82.9135 12.2166 82.6255 12.3464 82.3912 12.606C82.1569 12.8656 82.0398 13.1793 82.0398 13.5471C82.0398 13.9149 82.1569 14.2276 82.3912 14.4852C82.6255 14.7429 82.9135 14.8717 83.2552 14.8717C83.5969 14.8717 83.8849 14.7429 84.1192 14.4852C84.3535 14.2276 84.4706 13.9149 84.4706 13.5471C84.4706 13.1793 84.3535 12.8656 84.1192 12.606ZM83.2525 15.6741C82.6473 15.6741 82.1377 15.4706 81.7237 15.0634C81.3098 14.6563 81.1028 14.1499 81.1028 13.5441C81.1028 12.9383 81.3098 12.4319 81.7237 12.0247C82.1377 11.6176 82.6473 11.4141 83.2525 11.4141C83.8578 11.4141 84.3674 11.6176 84.7813 12.0247C85.1952 12.4319 85.4022 12.9383 85.4022 13.5441C85.4022 14.1499 85.1952 14.6563 84.7813 15.0634C84.3674 15.4706 83.8578 15.6741 83.2525 15.6741ZM89.0599 15.6329L88.6792 14.7419H86.963L86.5822 15.6329H85.6099L87.3788 11.5085H88.2633L90.0323 15.6329H89.0599ZM87.8236 12.7358L87.3081 13.9336H88.3332L87.8236 12.7358ZM93.7249 12.0484C94.1154 12.4084 94.3107 12.9089 94.3107 13.5501C94.3107 14.1912 94.1203 14.6987 93.7396 15.0724C93.3588 15.446 92.778 15.6329 91.997 15.6329H90.5971V11.5085H92.0439C92.7741 11.5085 93.3344 11.6885 93.7249 12.0484ZM93.0541 14.5001C93.2787 14.2877 93.3909 13.9789 93.3909 13.5737C93.3909 13.1686 93.2787 12.8568 93.0541 12.6385C92.8296 12.4202 92.485 12.311 92.0203 12.311H91.5107V14.8187H92.0906C92.5084 14.8187 92.8296 14.7125 93.0541 14.5001Z" fill="white"/>
<path fill-rule="evenodd" clip-rule="evenodd" d="M46.4331 26.0437H47.8151V28.8641C47.0421 29.7216 45.9373 30.1503 44.5006 30.1503C43.2903 30.1503 42.2772 29.7491 41.4612 28.9467C40.6453 28.1442 40.2373 27.1294 40.2373 25.9021C40.2373 24.6748 40.6531 23.6521 41.4847 22.8339C42.3162 22.0157 43.3215 21.6066 44.5006 21.6066C45.6796 21.6066 46.6595 21.9528 47.4403 22.6451L46.7025 23.7071C46.3823 23.4318 46.0603 23.241 45.7362 23.1348C45.4122 23.0286 45.0354 22.9755 44.606 22.9755C43.7783 22.9755 43.0834 23.245 42.5212 23.7839C41.959 24.3228 41.6779 25.0308 41.6779 25.908C41.6779 26.7852 41.9512 27.4893 42.4978 28.0203C43.0443 28.5513 43.7061 28.8169 44.483 28.8169C45.2599 28.8169 45.9099 28.6477 46.4331 28.3094V26.0437ZM52.3131 28.9702C52.8833 28.9702 53.3538 28.7794 53.7248 28.3978C54.0958 28.0163 54.2812 27.5226 54.2812 26.9168C54.2812 26.3111 54.0958 25.8174 53.7248 25.4359C53.3538 25.0543 52.8833 24.8635 52.3131 24.8635C51.743 24.8635 51.2725 25.0543 50.9015 25.4359C50.5305 25.8174 50.345 26.3111 50.345 26.9168C50.345 27.5226 50.5305 28.0163 50.9015 28.3978C51.2725 28.7794 51.743 28.9702 52.3131 28.9702ZM52.3126 30.1504C51.3757 30.1504 50.5948 29.8377 49.9702 29.2122C49.3455 28.5868 49.0332 27.8217 49.0332 26.917C49.0332 26.0123 49.3455 25.2472 49.9702 24.6217C50.5948 23.9963 51.3757 23.6836 52.3126 23.6836C53.2496 23.6836 54.0304 23.9963 54.6551 24.6217C55.2798 25.2472 55.5921 26.0123 55.5921 26.917C55.5921 27.8217 55.2798 28.5868 54.6551 29.2122C54.0304 29.8377 53.2496 30.1504 52.3126 30.1504ZM59.9495 28.9702C60.5196 28.9702 60.9902 28.7794 61.3611 28.3978C61.7321 28.0163 61.9176 27.5226 61.9176 26.9168C61.9176 26.3111 61.7321 25.8174 61.3611 25.4359C60.9902 25.0543 60.5196 24.8635 59.9495 24.8635C59.3794 24.8635 58.9088 25.0543 58.5379 25.4359C58.1669 25.8174 57.9814 26.3111 57.9814 26.9168C57.9814 27.5226 58.1669 28.0163 58.5379 28.3978C58.9088 28.7794 59.3794 28.9702 59.9495 28.9702ZM59.949 30.1504C59.012 30.1504 58.2312 29.8377 57.6065 29.2122C56.9819 28.5868 56.6696 27.8217 56.6696 26.917C56.6696 26.0123 56.9819 25.2472 57.6065 24.6217C58.2312 23.9963 59.012 23.6836 59.949 23.6836C60.886 23.6836 61.6668 23.9963 62.2915 24.6217C62.9161 25.2472 63.2284 26.0123 63.2284 26.917C63.2284 27.8217 62.9161 28.5868 62.2915 29.2122C61.6668 29.8377 60.886 30.1504 59.949 30.1504ZM70.4784 23.778V29.2535C70.4784 30.3628 70.1798 31.1947 69.5824 31.7494C68.9851 32.304 68.218 32.5813 67.281 32.5813C66.344 32.5813 65.4968 32.2863 64.7394 31.6963L65.3602 30.6932C65.9692 31.1574 66.5841 31.3895 67.2048 31.3895C67.8256 31.3895 68.3175 31.2282 68.6806 30.9056C69.0437 30.5831 69.2252 30.0678 69.2252 29.3597V28.5573C69.03 28.927 68.7509 29.2221 68.3878 29.4423C68.0247 29.6626 67.6167 29.7728 67.1639 29.7728C66.3362 29.7728 65.6569 29.4817 65.1259 28.8995C64.595 28.3173 64.3295 27.5936 64.3295 26.7282C64.3295 25.8628 64.595 25.139 65.1259 24.5568C65.6569 23.9747 66.3342 23.6836 67.158 23.6836C67.9818 23.6836 68.6513 24.0258 69.1666 24.7103V23.778H70.4784ZM66.0922 28.0085C66.4085 28.3822 66.8342 28.569 67.3691 28.569C67.9041 28.569 68.3376 28.3881 68.6695 28.0262C69.0014 27.6643 69.1674 27.2139 69.1674 26.675C69.1674 26.1361 68.9995 25.6798 68.6636 25.3061C68.3278 24.9324 67.8944 24.7456 67.3633 24.7456C66.8322 24.7456 66.4085 24.9383 66.0922 25.3238C65.7759 25.7093 65.6178 26.1597 65.6178 26.675C65.6178 27.1903 65.7759 27.6348 66.0922 28.0085ZM73.6879 30.0559H72.3758V21.2998H73.6879V30.0559ZM81.3825 27.4952H76.4985C76.5297 27.9515 76.7366 28.3193 77.1192 28.5986C77.5018 28.8779 77.9391 29.0175 78.431 29.0175C79.2118 29.0175 79.8052 28.7697 80.2112 28.2741L80.9608 29.1001C80.2893 29.8003 79.4148 30.1504 78.3373 30.1504C77.4628 30.1504 76.719 29.8573 76.1061 29.2712C75.4932 28.6851 75.1867 27.8984 75.1867 26.9111C75.1867 25.9238 75.499 25.139 76.1237 24.5568C76.7483 23.9747 77.4842 23.6836 78.3314 23.6836C79.1786 23.6836 79.8989 23.9412 80.4923 24.4565C81.0858 24.9718 81.3825 25.6818 81.3825 26.5866V27.4952ZM76.4985 26.4567H80.0716C80.0716 25.9296 79.9076 25.5244 79.5795 25.2412C79.2515 24.958 78.8474 24.8164 78.367 24.8164C77.8867 24.8164 77.4552 24.9639 77.0726 25.2589C76.6899 25.554 76.4985 25.9532 76.4985 26.4567ZM91.7478 22.527C92.3178 23.0069 92.6028 23.7464 92.6028 24.7455C92.6028 25.7446 92.312 26.4763 91.7303 26.9404C91.1485 27.4046 90.2565 27.6367 89.054 27.6367H87.6017V30.0558H86.2196V21.8071H89.0306C90.2721 21.8071 91.1778 22.0471 91.7478 22.527ZM90.7706 25.9315C91.0479 25.6365 91.1865 25.2038 91.1865 24.6334C91.1865 24.063 91.0108 23.6599 90.6593 23.4238C90.3079 23.1878 89.7573 23.0698 89.0075 23.0698H87.6018V26.374H89.2067C89.9721 26.374 90.4934 26.2265 90.7706 25.9315ZM95.3555 30.0559H94.0434V21.2998H95.3555V30.0559ZM102.301 30.056H101.106V29.2181C100.591 29.8396 99.8996 30.1504 99.0329 30.1504C98.3848 30.1504 97.848 29.9655 97.4225 29.5957C96.9969 29.226 96.7842 28.7323 96.7842 28.1148C96.7842 27.4972 97.0106 27.035 97.4635 26.7282C97.9164 26.4214 98.5293 26.2679 99.3023 26.2679H101.001V26.0319C101.001 25.198 100.54 24.7811 99.6185 24.7811C99.0407 24.7811 98.4395 24.9935 97.8148 25.4183L97.2292 24.5922C97.9866 23.9865 98.8455 23.6836 99.8059 23.6836C100.54 23.6836 101.139 23.8704 101.604 24.2441C102.068 24.6178 102.301 25.2059 102.301 26.0083V30.056ZM100.989 27.7193V27.1882H99.5134C98.5684 27.1882 98.0959 27.4872 98.0959 28.0851C98.0959 28.3919 98.213 28.626 98.4473 28.7872C98.6816 28.9485 99.0077 29.0291 99.4255 29.0291C99.8434 29.0291 100.208 28.9111 100.521 28.6751C100.833 28.4391 100.989 28.1205 100.989 27.7193ZM104.912 32.5576C104.342 32.5576 103.827 32.3491 103.366 31.9321L103.964 30.8583C104.237 31.1179 104.52 31.2477 104.813 31.2477C105.106 31.2477 105.344 31.1415 105.527 30.9291C105.711 30.7166 105.803 30.4846 105.803 30.2328C105.803 30.1227 104.963 27.971 103.284 23.7778H104.69L106.552 28.4037L108.414 23.7778H109.82L106.798 31.2359C106.619 31.645 106.361 31.9675 106.025 32.2035C105.689 32.4395 105.318 32.5576 104.912 32.5576Z" fill="white"/>
<path opacity="0.7" d="M11.7495 31.4087V11.2926C11.7495 11.2926 11.9105 10.6803 12.5674 10.3174C13.112 10.0073 13.7768 10.446 14.1274 10.6275C14.478 10.8089 31.2129 20.3164 31.2129 20.3164C31.2129 20.3164 31.8776 20.7719 31.8776 21.5039C31.8776 22.2351 31.3069 22.5532 30.9197 22.7761C30.5325 22.9989 13.5044 32.6658 13.5044 32.6658C13.5044 32.6658 12.7379 32.8156 12.2437 32.4905C11.7495 32.1654 11.7495 31.6192 11.7495 31.4087Z" fill="white"/>
<path opacity="0.65" d="M31.2129 20.3163C31.2129 20.3163 29.4945 19.3402 27.1479 18.0073L12.6309 32.6508C13.0607 32.7521 13.5044 32.6658 13.5044 32.6658C13.5044 32.6658 30.5325 22.998 30.9197 22.776C31.3068 22.5531 31.8776 22.2351 31.8776 21.5039C31.8776 20.7727 31.2129 20.3163 31.2129 20.3163Z" fill="white"/>
<path opacity="0.65" d="M31.2129 20.3165C31.2129 20.3165 14.478 10.8091 14.1274 10.6276C13.7768 10.4461 13.112 10.0083 12.5674 10.3175L27.0871 24.9531C29.2387 23.7311 30.8057 22.8414 30.9197 22.7753C31.3069 22.5524 31.8776 22.2344 31.8776 21.5032C31.8776 20.7728 31.2129 20.3165 31.2129 20.3165Z" fill="white"/>
<path d="M31.213 20.3163C31.213 20.3163 29.4947 19.3402 27.1481 18.0073C27.1481 18.0073 24.8251 20.3506 23.6636 21.5222C23.6636 21.5222 27.085 24.9547 27.085 24.9547C29.2374 23.7323 30.8054 22.8416 30.9198 22.776C31.307 22.5531 31.8778 22.2351 31.8778 21.5039C31.8778 20.7727 31.213 20.3163 31.213 20.3163Z" fill="white"/>
</svg>
