<svg width="16" height="16" viewBox="0 0 16 16" fill="none" xmlns="http://www.w3.org/2000/svg">
<path d="M8.00016 1.33301C4.32683 1.33301 1.3335 4.32634 1.3335 7.99967C1.3335 11.673 4.32683 14.6663 8.00016 14.6663C11.6735 14.6663 14.6668 11.673 14.6668 7.99967C14.6668 4.32634 11.6735 1.33301 8.00016 1.33301ZM10.6668 8.49967H8.50016V10.6663C8.50016 10.9397 8.2735 11.1663 8.00016 11.1663C7.72683 11.1663 7.50016 10.9397 7.50016 10.6663V8.49967H5.3335C5.06016 8.49967 4.8335 8.27301 4.8335 7.99967C4.8335 7.72634 5.06016 7.49967 5.3335 7.49967H7.50016V5.33301C7.50016 5.05967 7.72683 4.83301 8.00016 4.83301C8.2735 4.83301 8.50016 5.05967 8.50016 5.33301V7.49967H10.6668C10.9402 7.49967 11.1668 7.72634 11.1668 7.99967C11.1668 8.27301 10.9402 8.49967 10.6668 8.49967Z" fill="#EE1D48"/>
</svg>
