<svg width="16" height="16" viewBox="0 0 16 16" fill="none" xmlns="http://www.w3.org/2000/svg">
<path d="M14.0466 3.48634C12.9733 3.37967 11.8999 3.29967 10.8199 3.23967V3.23301L10.6733 2.36634C10.5733 1.75301 10.4266 0.833008 8.86661 0.833008H7.11994C5.56661 0.833008 5.41994 1.71301 5.31328 2.35967L5.17328 3.21301C4.55328 3.25301 3.93328 3.29301 3.31328 3.35301L1.95328 3.48634C1.67328 3.51301 1.47328 3.75967 1.49994 4.03301C1.52661 4.30634 1.76661 4.50634 2.04661 4.47967L3.40661 4.34634C6.89994 3.99967 10.4199 4.13301 13.9533 4.48634C13.9733 4.48634 13.9866 4.48634 14.0066 4.48634C14.2599 4.48634 14.4799 4.29301 14.5066 4.03301C14.5266 3.75967 14.3266 3.51301 14.0466 3.48634Z" fill="#E93C3C"/>
<path d="M12.8202 5.42699C12.6602 5.26033 12.4402 5.16699 12.2135 5.16699H3.78683C3.56016 5.16699 3.33349 5.26033 3.18016 5.42699C3.02683 5.59366 2.94016 5.82033 2.95349 6.05366L3.36683 12.8937C3.44016 13.907 3.53349 15.1737 5.86016 15.1737H10.1402C12.4668 15.1737 12.5602 13.9137 12.6335 12.8937L13.0468 6.06033C13.0602 5.82033 12.9735 5.59366 12.8202 5.42699ZM9.10682 11.8337H6.88683C6.61349 11.8337 6.38683 11.607 6.38683 11.3337C6.38683 11.0603 6.61349 10.8337 6.88683 10.8337H9.10682C9.38016 10.8337 9.60682 11.0603 9.60682 11.3337C9.60682 11.607 9.38016 11.8337 9.10682 11.8337ZM9.66683 9.16699H6.33349C6.06016 9.16699 5.83349 8.94033 5.83349 8.66699C5.83349 8.39366 6.06016 8.16699 6.33349 8.16699H9.66683C9.94016 8.16699 10.1668 8.39366 10.1668 8.66699C10.1668 8.94033 9.94016 9.16699 9.66683 9.16699Z" fill="#E93C3C"/>
</svg>
