<svg width="12" height="12" viewBox="0 0 12 12" fill="none" xmlns="http://www.w3.org/2000/svg">
<path fill-rule="evenodd" clip-rule="evenodd" d="M4.25093 11.3519L10.1085 3.77696C10.4269 3.36847 10.5401 2.8962 10.4339 2.41533C10.342 1.97817 10.0731 1.56251 9.66991 1.24719L8.68657 0.466042C7.83057 -0.214774 6.76941 -0.143109 6.16102 0.638038L5.5031 1.49157C5.41821 1.59835 5.43943 1.75601 5.54554 1.84201C5.54554 1.84201 7.20802 3.17497 7.2434 3.20364C7.35659 3.31114 7.44148 3.45447 7.4627 3.62646C7.49807 3.96329 7.26462 4.27861 6.91797 4.32161C6.75526 4.34311 6.59963 4.29295 6.48644 4.19978L4.73906 2.80948C4.65417 2.7457 4.52683 2.75932 4.45609 2.84532L0.303426 8.22018C0.034599 8.55701 -0.057368 8.99416 0.034599 9.41698L0.565178 11.7174C0.593475 11.8393 0.699591 11.9253 0.82693 11.9253L3.16148 11.8966C3.58594 11.8894 3.98211 11.6959 4.25093 11.3519ZM7.51979 10.6355H11.3265C11.6979 10.6355 12 10.9415 12 11.3178C12 11.6947 11.6979 12 11.3265 12H7.51979C7.14839 12 6.84631 11.6947 6.84631 11.3178C6.84631 10.9415 7.14839 10.6355 7.51979 10.6355Z" fill="#EE1D48"/>
</svg>
