<svg width="70" height="70" viewBox="0 0 70 70" fill="none" xmlns="http://www.w3.org/2000/svg">
<path d="M63.4375 61.2501H31.4781C27.799 61.2446 24.2699 59.7911 21.6541 57.204C19.0383 54.6168 17.546 51.1039 17.5 47.4251H43.75C44.3302 47.4251 44.8866 47.1946 45.2968 46.7844C45.707 46.3741 45.9375 45.8177 45.9375 45.2376C45.9375 44.6574 45.707 44.101 45.2968 43.6908C44.8866 43.2805 44.3302 43.0501 43.75 43.0501H17.5V41.5626C17.5 40.9824 17.7305 40.426 18.1407 40.0158C18.5509 39.6055 19.1073 39.3751 19.6875 39.3751H50.3125C50.8927 39.3751 51.4491 39.6055 51.8593 40.0158C52.2695 40.426 52.5 40.9824 52.5 41.5626V47.2719C52.5176 49.9669 51.7581 52.6099 50.3125 54.8844C49.998 55.3694 49.8882 55.959 50.007 56.5247C50.1259 57.0903 50.4638 57.5859 50.9469 57.9032C51.1878 58.0624 51.4579 58.1722 51.7415 58.2265C52.0251 58.2808 52.3167 58.2783 52.5993 58.2194C52.882 58.1604 53.1502 58.046 53.3884 57.8829C53.6267 57.7197 53.8303 57.511 53.9875 57.2688C55.8931 54.2844 56.8958 50.8129 56.875 47.2719V41.5626C56.8678 40.0978 56.3707 38.6775 55.4629 37.5279C54.5551 36.3783 53.2888 35.5655 51.8656 35.2188C51.5509 33.7877 50.8729 32.4618 49.8969 31.3688C48.9554 30.2987 47.7631 29.4788 46.427 28.9825C45.0908 28.4862 43.6524 28.329 42.2406 28.5251C41.2612 26.7877 39.7176 25.4371 37.8656 24.6969C36.8364 24.2821 35.7378 24.0668 34.6281 24.0626C33.09 24.0603 31.5784 24.4635 30.2458 25.2316C28.9132 25.9997 27.8066 27.1055 27.0375 28.4376C25.295 28.6668 23.6619 29.4154 22.351 30.5859C21.04 31.7564 20.1119 33.2946 19.6875 35.0001C17.947 35.0001 16.2778 35.6915 15.0471 36.9222C13.8164 38.1529 13.125 39.8221 13.125 41.5626V47.2719C13.125 52.1395 15.0586 56.8077 18.5005 60.2496C21.9424 63.6914 26.6106 65.6251 31.4781 65.6251H63.4375C64.0177 65.6251 64.5741 65.3946 64.9843 64.9844C65.3945 64.5741 65.625 64.0177 65.625 63.4376C65.625 62.8574 65.3945 62.301 64.9843 61.8908C64.5741 61.4805 64.0177 61.2501 63.4375 61.2501ZM28.1094 32.8126C28.6355 32.9195 29.1825 32.8293 29.6464 32.559C30.1103 32.2888 30.4586 31.8574 30.625 31.3469C30.824 30.7954 31.1317 30.2894 31.5301 29.8592C31.9284 29.4289 32.4092 29.0831 32.9439 28.8423C33.4785 28.6015 34.0561 28.4707 34.6423 28.4575C35.2285 28.4443 35.8114 28.5491 36.3563 28.7657C36.9816 29.009 37.54 29.3978 37.9851 29.9C38.4302 30.4021 38.7492 31.0031 38.9156 31.6532C38.9948 31.954 39.1372 32.2345 39.3333 32.4759C39.5295 32.7173 39.7749 32.9141 40.0531 33.0532C40.3381 33.1832 40.6477 33.2505 40.9609 33.2505C41.2742 33.2505 41.5838 33.1832 41.8687 33.0532C42.8425 32.6719 43.9207 32.652 44.9078 32.9971C45.895 33.3422 46.7259 34.0295 47.25 34.9344H24.2812C24.6768 34.2758 25.2389 33.7329 25.9109 33.3604C26.5829 32.9879 27.3412 32.799 28.1094 32.8126ZM15.75 61.2501H4.375C3.79484 61.2501 3.23844 61.4805 2.8282 61.8908C2.41797 62.301 2.1875 62.8574 2.1875 63.4376C2.1875 64.0177 2.41797 64.5741 2.8282 64.9844C3.23844 65.3946 3.79484 65.6251 4.375 65.6251H15.75C16.3302 65.6251 16.8866 65.3946 17.2968 64.9844C17.707 64.5741 17.9375 64.0177 17.9375 63.4376C17.9375 62.8574 17.707 62.301 17.2968 61.8908C16.8866 61.4805 16.3302 61.2501 15.75 61.2501ZM23.9094 15.1376C24.4736 16.0197 24.6917 17.0793 24.5219 18.1126C24.4948 18.4001 24.525 18.6901 24.6106 18.9658C24.6961 19.2416 24.8355 19.4977 25.0205 19.7194C25.2056 19.9411 25.4327 20.1239 25.6888 20.2573C25.9448 20.3908 26.2248 20.4722 26.5125 20.4969H26.7094C27.257 20.4992 27.7855 20.2959 28.1905 19.9274C28.5955 19.5588 28.8476 19.0517 28.8969 18.5063C29.1355 16.6384 28.7428 14.7442 27.7812 13.1251C27.4311 12.5176 27.1731 11.8615 27.0156 11.1782C26.9799 10.6225 27.0673 10.0658 27.2715 9.5478C27.4757 9.02978 27.7916 8.56319 28.1969 8.18132C28.4184 7.99436 28.6006 7.76522 28.7328 7.50724C28.865 7.24925 28.9446 6.96756 28.967 6.67854C28.9894 6.38951 28.9541 6.09892 28.8632 5.82365C28.7723 5.54838 28.6276 5.29393 28.4375 5.07507C28.243 4.86122 28.0079 4.68805 27.7461 4.56558C27.4842 4.44312 27.2006 4.37377 26.9117 4.36157C26.6229 4.34936 26.3345 4.39454 26.0632 4.49448C25.7919 4.59442 25.5431 4.74714 25.3312 4.94382C24.3703 5.83783 23.6412 6.95213 23.2067 8.19066C22.7723 9.42919 22.6456 10.7548 22.8375 12.0532C23.0443 13.1276 23.4053 14.1665 23.9094 15.1376ZM42.6344 15.1376C43.2062 16.0168 43.4322 17.0766 43.2688 18.1126C43.2139 18.6898 43.3905 19.2651 43.7596 19.7122C44.1288 20.1593 44.6604 20.4416 45.2375 20.4969H45.4563C46.0039 20.4992 46.5324 20.2959 46.9374 19.9274C47.3424 19.5588 47.5945 19.0517 47.6438 18.5063C47.8758 16.6359 47.4754 14.7416 46.5063 13.1251C46.1584 12.5266 45.9073 11.8769 45.7625 11.2001C45.7235 10.6408 45.8092 10.0799 46.0135 9.55782C46.2178 9.03575 46.5355 8.56559 46.9437 8.18132C47.1563 7.98598 47.3283 7.75068 47.45 7.48886C47.5716 7.22704 47.6405 6.94382 47.6527 6.65538C47.6649 6.36694 47.6201 6.07892 47.521 5.80777C47.4219 5.53662 47.2703 5.28765 47.075 5.07507C46.8797 4.8625 46.6444 4.69048 46.3825 4.56883C46.1207 4.44719 45.8375 4.37831 45.5491 4.36612C45.2606 4.35394 44.9726 4.39868 44.7015 4.4978C44.4303 4.59692 44.1813 4.74848 43.9688 4.94382C43.0157 5.84086 42.2978 6.95842 41.8782 8.19815C41.4586 9.43787 41.3502 10.7617 41.5625 12.0532C41.7702 13.1274 42.1312 14.1661 42.6344 15.1376ZM33.8625 16.9532C34.4367 17.8312 34.6557 18.8947 34.475 19.9282C34.448 20.2157 34.4781 20.5057 34.5637 20.7815C34.6493 21.0572 34.7886 21.3134 34.9737 21.535C35.1587 21.7567 35.3858 21.9395 35.6419 22.073C35.898 22.2064 36.1779 22.2879 36.4656 22.3126H36.6625C37.2101 22.3148 37.7386 22.1115 38.1437 21.743C38.5487 21.3744 38.8007 20.8673 38.85 20.3219C39.0936 18.4468 38.7008 16.5441 37.7344 14.9188C37.3879 14.3173 37.1301 13.669 36.9688 12.9938C36.9343 12.435 37.0222 11.8754 37.2262 11.3541C37.4302 10.8327 37.7455 10.3621 38.15 9.97507C38.5753 9.58283 38.8279 9.03805 38.8525 8.45999C38.8771 7.88192 38.6717 7.31766 38.2812 6.8907C38.0867 6.67685 37.8517 6.50368 37.5898 6.38121C37.3279 6.25874 37.0443 6.1894 36.7555 6.17719C36.4667 6.16499 36.1782 6.21016 35.907 6.3101C35.6357 6.41004 35.3869 6.56277 35.175 6.75945C34.214 7.65346 33.4849 8.76776 33.0505 10.0063C32.616 11.2448 32.4893 12.5704 32.6812 13.8688C32.9225 14.949 33.3205 15.9882 33.8625 16.9532Z" fill="#EE1D48"/>
</svg>
