<svg width="70" height="70" viewBox="0 0 70 70" fill="none" xmlns="http://www.w3.org/2000/svg">
<path d="M65.6249 50.3125H28.4374C27.2299 50.3125 26.2499 51.2925 26.2499 52.5C26.2499 53.7075 27.2299 54.6875 28.4374 54.6875H62.0855L60.5018 57.8528C60.1299 58.5988 59.3796 59.0625 58.5462 59.0625H11.4537C10.6202 59.0625 9.86992 58.5988 9.49804 57.8528L7.91429 54.6875H13.1249C14.3324 54.6875 15.3124 53.7075 15.3124 52.5C15.3124 51.2925 14.3324 50.3125 13.1249 50.3125H4.37492C3.61586 50.3125 2.91367 50.7063 2.51336 51.3494C2.11523 51.9947 2.07804 52.7997 2.41711 53.4778L5.58242 59.8106C6.70242 62.0484 8.95336 63.4375 11.4537 63.4375H58.5462C61.0465 63.4375 63.2952 62.0484 64.4152 59.8106L67.5805 53.4778C67.9196 52.7997 67.8824 51.9947 67.4843 51.3494C67.0862 50.7063 66.384 50.3125 65.6249 50.3125Z" fill="#EE1D48"/>
<path d="M19.6875 50.3125C18.48 50.3125 17.5 51.2925 17.5 52.5C17.5 53.7075 18.48 54.6875 19.6875 54.6875H21.875C23.0825 54.6875 24.0625 53.7075 24.0625 52.5C24.0625 51.2925 23.0825 50.3125 21.875 50.3125H19.6875ZM4.375 48.125H65.625C66.8325 48.125 67.8125 47.145 67.8125 45.9375C67.8125 44.73 66.8325 43.75 65.625 43.75H65.5134C64.5269 29.8769 54.285 18.5303 40.9238 15.8988C41.3241 15.0544 41.5625 14.1203 41.5625 13.125C41.5625 9.50687 38.6181 6.5625 35 6.5625C31.3819 6.5625 28.4375 9.50687 28.4375 13.125C28.4375 14.1203 28.6759 15.0544 29.0741 15.8988C15.715 18.5303 5.47313 29.8769 4.48656 43.75H4.375C3.1675 43.75 2.1875 44.73 2.1875 45.9375C2.1875 47.145 3.1675 48.125 4.375 48.125ZM32.8125 13.125C32.8125 11.9197 33.7947 10.9375 35 10.9375C36.2053 10.9375 37.1875 11.9197 37.1875 13.125C37.1875 14.3303 36.2053 15.3125 35 15.3125C33.7947 15.3125 32.8125 14.3303 32.8125 13.125ZM35 19.6875C48.7353 19.6875 60.0206 30.2991 61.1384 43.75H8.86156C9.97938 30.2991 21.2647 19.6875 35 19.6875Z" fill="#EE1D48"/>
</svg>
