<svg width="70" height="70" viewBox="0 0 70 70" fill="none" xmlns="http://www.w3.org/2000/svg">
<path d="M35 65.625C35.4934 65.6221 35.9714 65.4525 36.3563 65.1438C37.1875 64.4 59.0625 46.7687 59.0625 28.4375C59.0625 22.0557 56.5274 15.9353 52.0148 11.4227C47.5022 6.91015 41.3818 4.375 35 4.375C28.6182 4.375 22.4978 6.91015 17.9852 11.4227C13.4726 15.9353 10.9375 22.0557 10.9375 28.4375C10.9375 46.7687 32.8125 64.4 33.6438 65.1438C34.0286 65.4525 34.5066 65.6221 35 65.625ZM15.3125 28.4375C15.3125 23.2161 17.3867 18.2085 21.0788 14.5163C24.771 10.8242 29.7786 8.75 35 8.75C40.2214 8.75 45.229 10.8242 48.9212 14.5163C52.6133 18.2085 54.6875 23.2161 54.6875 28.4375C54.6875 42.2188 39.6594 56.4594 35 60.5719C30.3406 56.4594 15.3125 42.2188 15.3125 28.4375Z" fill="#EE1D48"/>
<path d="M45.9375 28.4375C45.9375 26.2743 45.296 24.1596 44.0942 22.361C42.8924 20.5623 41.1842 19.1604 39.1856 18.3326C37.187 17.5047 34.9879 17.2881 32.8662 17.7102C30.7445 18.1322 28.7957 19.1739 27.266 20.7035C25.7364 22.2332 24.6947 24.182 24.2727 26.3037C23.8506 28.4254 24.0672 30.6245 24.8951 32.6231C25.7229 34.6217 27.1248 36.3299 28.9235 37.5317C30.7221 38.7335 32.8368 39.375 35 39.375C37.9008 39.375 40.6828 38.2227 42.734 36.1715C44.7852 34.1203 45.9375 31.3383 45.9375 28.4375ZM28.4375 28.4375C28.4375 27.1396 28.8224 25.8708 29.5435 24.7916C30.2646 23.7124 31.2895 22.8712 32.4886 22.3745C33.6878 21.8778 35.0073 21.7479 36.2803 22.0011C37.5533 22.2543 38.7226 22.8793 39.6404 23.7971C40.5582 24.7149 41.1832 25.8842 41.4364 27.1572C41.6896 28.4302 41.5597 29.7497 41.063 30.9489C40.5663 32.148 39.7251 33.1729 38.6459 33.894C37.5667 34.6151 36.2979 35 35 35C33.2595 35 31.5903 34.3086 30.3596 33.0779C29.1289 31.8472 28.4375 30.178 28.4375 28.4375Z" fill="#EE1D48"/>
</svg>
