<svg width="16" height="16" viewBox="0 0 16 16" fill="none" xmlns="http://www.w3.org/2000/svg">
<path d="M8.72414 12H7.27586C7.21184 12 7.15045 11.9695 7.10518 11.9152C7.05991 11.8609 7.03448 11.7873 7.03448 11.7105V6.5C7.03448 6.42323 7.05991 6.3496 7.10518 6.29531C7.15045 6.24102 7.21184 6.21053 7.27586 6.21053H8.72414C8.78816 6.21053 8.84955 6.24102 8.89482 6.29531C8.94009 6.3496 8.96552 6.42323 8.96552 6.5V11.7105C8.96552 11.7873 8.94009 11.8609 8.89482 11.9152C8.84955 11.9695 8.78816 12 8.72414 12ZM7.51724 11.4211H8.48276V6.78947H7.51724V11.4211ZM12.3448 4.47368H3.65517C2.95098 4.47368 2.27562 4.13821 1.77768 3.54105C1.27974 2.9439 1 2.13398 1 1.28947C1 1.2127 1.02543 1.13907 1.0707 1.08478C1.11597 1.0305 1.17736 1 1.24138 1H14.7586C14.8226 1 14.884 1.0305 14.9293 1.08478C14.9746 1.13907 15 1.2127 15 1.28947C15 1.70763 14.9313 2.12169 14.7979 2.50802C14.6645 2.89434 14.4689 3.24537 14.2223 3.54105C13.9758 3.83673 13.6831 4.07128 13.3609 4.2313C13.0388 4.39132 12.6935 4.47368 12.3448 4.47368ZM1.49724 1.57895C1.5566 2.2156 1.80947 2.80371 2.20754 3.23091C2.60562 3.65811 3.12099 3.89443 3.65517 3.89474H12.3448C12.879 3.89443 13.3944 3.65811 13.7925 3.23091C14.1905 2.80371 14.4434 2.2156 14.5028 1.57895H1.49724Z" fill="#6E7191"/>
<path d="M11.7497 15H10.2498C10.2008 14.9996 10.153 14.9824 10.1123 14.9508L8.67494 13.8421H7.32506L5.88768 14.9508C5.84701 14.9824 5.7992 14.9996 5.75019 15H4.25032C4.18402 15 4.12044 14.9695 4.07356 14.9152C4.02668 14.8609 4.00034 14.7873 4.00034 14.7105V12.9737C3.99749 12.9106 4.01257 12.8481 4.04327 12.7958C4.07396 12.7436 4.11858 12.7044 4.17033 12.6842L7.17007 11.5263C7.19661 11.5221 7.22352 11.5221 7.25006 11.5263H8.74994C8.77648 11.5221 8.80339 11.5221 8.82993 11.5263L11.8297 12.6842C11.8814 12.7044 11.926 12.7436 11.9567 12.7958C11.9874 12.8481 12.0025 12.9106 11.9997 12.9737V14.7105C11.9997 14.7873 11.9733 14.8609 11.9264 14.9152C11.8796 14.9695 11.816 15 11.7497 15ZM10.3248 14.4211H11.4997V13.1821L8.70994 12.1053H7.29006L4.5003 13.1821V14.4211H5.6752L7.11258 13.3124C7.15325 13.2807 7.20106 13.2636 7.25006 13.2632H8.74994C8.79894 13.2636 8.84675 13.2807 8.88742 13.3124L10.3248 14.4211ZM9.49987 6.89474H6.50013C6.43383 6.89474 6.37025 6.86424 6.32337 6.80995C6.27649 6.75567 6.25015 6.68204 6.25015 6.60526V4.28947C6.25015 4.2127 6.27649 4.13907 6.32337 4.08478C6.37025 4.0305 6.43383 4 6.50013 4H9.49987C9.56617 4 9.62975 4.0305 9.67663 4.08478C9.72351 4.13907 9.74985 4.2127 9.74985 4.28947V6.60526C9.74985 6.68204 9.72351 6.75567 9.67663 6.80995C9.62975 6.86424 9.56617 6.89474 9.49987 6.89474ZM6.75011 6.31579H9.24989V4.57895H6.75011V6.31579Z" fill="#6E7191"/>
</svg>
