<svg width="16" height="16" viewBox="0 0 16 16" fill="none" xmlns="http://www.w3.org/2000/svg">
<path d="M14.048 5.5518L12.32 3.2478V2.0798C12.32 1.3758 11.744 0.799805 11.04 0.799805H4.96001C4.25601 0.799805 3.68001 1.3758 3.68001 2.0798V3.2478L1.95201 5.5518C1.82401 5.7118 1.76001 5.9198 1.76001 6.1278V14.2398C1.76001 14.7678 2.19201 15.1998 2.72001 15.1998H13.28C13.808 15.1998 14.24 14.7678 14.24 14.2398V6.1278C14.24 5.9198 14.176 5.7278 14.048 5.5518ZM4.32001 2.0798C4.32001 1.7278 4.60801 1.4398 4.96001 1.4398H11.04C11.392 1.4398 11.68 1.7278 11.68 2.0798V3.0398H10.288C10.112 2.6558 9.72801 2.3998 9.28001 2.3998H6.72001C6.27201 2.3998 5.88801 2.6558 5.71201 3.0398H4.32001V2.0798ZM9.76001 3.5198C9.76001 3.7758 9.55201 3.9998 9.28001 3.9998H6.72001C6.44801 3.9998 6.24001 3.7758 6.24001 3.5198C6.24001 3.2478 6.44801 3.0398 6.72001 3.0398H9.28001C9.55201 3.0398 9.76001 3.2478 9.76001 3.5198ZM13.6 14.2398C13.6 14.4158 13.456 14.5598 13.28 14.5598H2.72001C2.54401 14.5598 2.40001 14.4158 2.40001 14.2398V6.1278C2.40001 6.0638 2.41601 5.9998 2.46401 5.9358L4.16001 3.6798H5.61601C5.69601 4.2238 6.16001 4.6398 6.72001 4.6398H9.28001C9.84001 4.6398 10.304 4.2238 10.384 3.6798H11.84L13.536 5.9358C13.584 5.9838 13.6 6.0638 13.6 6.1278V14.2398Z" fill="#6E7191"/>
<path d="M11.8241 9.1361C11.6641 7.1521 10.0161 5.6001 8.00011 5.6001C5.98411 5.6001 4.33611 7.1521 4.17611 9.1361C3.71211 9.2001 3.36011 9.6001 3.36011 10.0801C3.36011 10.5601 3.71211 10.9441 4.16011 11.0241V12.0001C4.16011 12.8801 4.88011 13.6001 5.76011 13.6001H10.2401C11.1201 13.6001 11.8401 12.8801 11.8401 12.0001V11.0241C12.2881 10.9441 12.6401 10.5601 12.6401 10.0801C12.6401 9.6001 12.2881 9.2001 11.8241 9.1361ZM8.00011 6.2401C9.64811 6.2401 11.0241 7.5041 11.1841 9.1201H4.81611C4.97611 7.5041 6.35211 6.2401 8.00011 6.2401ZM11.2001 12.0001C11.2001 12.5281 10.7681 12.9601 10.2401 12.9601H5.76011C5.23211 12.9601 4.80011 12.5281 4.80011 12.0001V11.0401H5.60011L6.46411 12.1921C6.51211 12.2561 6.59211 12.3041 6.67211 12.3201H6.70411C6.78411 12.3201 6.84811 12.2881 6.89611 12.2561L8.41611 11.0401H11.2001V12.0001ZM6.40011 11.0401H7.40811L6.78411 11.5361L6.40011 11.0401ZM11.6801 10.4001H4.32011C4.14411 10.4001 4.00011 10.2561 4.00011 10.0801C4.00011 9.9041 4.14411 9.7601 4.32011 9.7601H11.6801C11.8561 9.7601 12.0001 9.9041 12.0001 10.0801C12.0001 10.2561 11.8561 10.4001 11.6801 10.4001Z" fill="#6E7191"/>
<path d="M9.44012 7.8402C9.61685 7.8402 9.76012 7.69693 9.76012 7.5202C9.76012 7.34346 9.61685 7.2002 9.44012 7.2002C9.26339 7.2002 9.12012 7.34346 9.12012 7.5202C9.12012 7.69693 9.26339 7.8402 9.44012 7.8402Z" fill="#6E7191"/>
<path d="M6.55999 7.8402C6.73672 7.8402 6.87999 7.69693 6.87999 7.5202C6.87999 7.34346 6.73672 7.2002 6.55999 7.2002C6.38326 7.2002 6.23999 7.34346 6.23999 7.5202C6.23999 7.69693 6.38326 7.8402 6.55999 7.8402Z" fill="#6E7191"/>
<path d="M7.99993 8.47984C8.17666 8.47984 8.31993 8.33657 8.31993 8.15984C8.31993 7.98311 8.17666 7.83984 7.99993 7.83984C7.8232 7.83984 7.67993 7.98311 7.67993 8.15984C7.67993 8.33657 7.8232 8.47984 7.99993 8.47984Z" fill="#6E7191"/>
</svg>
