<svg width="16" height="16" viewBox="0 0 16 16" fill="none" xmlns="http://www.w3.org/2000/svg">
<path d="M3.66659 14.0002C4.95525 14.0002 5.99992 12.9555 5.99992 11.6668C5.99992 10.3782 4.95525 9.3335 3.66659 9.3335C2.37792 9.3335 1.33325 10.3782 1.33325 11.6668C1.33325 12.9555 2.37792 14.0002 3.66659 14.0002Z" stroke="#6E7191" stroke-linecap="round" stroke-linejoin="round"/>
<path d="M12.3333 14.0002C13.622 14.0002 14.6667 12.9555 14.6667 11.6668C14.6667 10.3782 13.622 9.3335 12.3333 9.3335C11.0447 9.3335 10 10.3782 10 11.6668C10 12.9555 11.0447 14.0002 12.3333 14.0002Z" stroke="#6E7191" stroke-linecap="round" stroke-linejoin="round"/>
<path d="M8 11.6665V9.33317L6 7.33317L8.66667 5.33317L10 7.33317H11.3333M10 3.99984C10.1768 3.99984 10.3464 3.9296 10.4714 3.80458C10.5964 3.67955 10.6667 3.50998 10.6667 3.33317C10.6667 3.15636 10.5964 2.98679 10.4714 2.86177C10.3464 2.73674 10.1768 2.6665 10 2.6665C9.82319 2.6665 9.65362 2.73674 9.5286 2.86177C9.40357 2.98679 9.33333 3.15636 9.33333 3.33317C9.33333 3.50998 9.40357 3.67955 9.5286 3.80458C9.65362 3.9296 9.82319 3.99984 10 3.99984V3.99984Z" stroke="#6E7191" stroke-linecap="round" stroke-linejoin="round"/>
</svg>
