<svg width="16" height="16" viewBox="0 0 16 16" fill="none" xmlns="http://www.w3.org/2000/svg">
<path d="M13 6.25C13 4.92392 12.4732 3.65215 11.5355 2.71447C10.5979 1.77678 9.32608 1.25 8 1.25C6.69021 1.24976 5.43263 1.76349 4.49763 2.68072C3.56264 3.59795 3.02489 4.84545 3 6.155C2.60218 6.155 2.22064 6.31304 1.93934 6.59434C1.65804 6.87564 1.5 7.25718 1.5 7.655V9.655C1.5 10.0528 1.65804 10.4344 1.93934 10.7157C2.22064 10.997 2.60218 11.155 3 11.155H4C4.39782 11.155 4.77936 10.997 5.06066 10.7157C5.34196 10.4344 5.5 10.0528 5.5 9.655V7.655C5.5 7.25718 5.34196 6.87564 5.06066 6.59434C4.77936 6.31304 4.39782 6.155 4 6.155C4.02481 5.11069 4.45716 4.11751 5.20464 3.38779C5.95211 2.65807 6.95539 2.24971 8 2.25C9.06087 2.25 10.0783 2.67143 10.8284 3.42157C11.5786 4.17172 12 5.18913 12 6.25C11.6022 6.25 11.2206 6.40804 10.9393 6.68934C10.658 6.97064 10.5 7.35218 10.5 7.75V9.75C10.5013 10.0806 10.6119 10.4015 10.8144 10.6628C11.017 10.9242 11.3002 11.1112 11.62 11.195C11.242 11.8817 10.6103 12.3932 9.86 12.62C9.73986 12.3604 9.54799 12.1406 9.30703 11.9864C9.06607 11.8323 8.78605 11.7502 8.5 11.75H7.5C7.10218 11.75 6.72064 11.908 6.43934 12.1893C6.15804 12.4706 6 12.8522 6 13.25C6 13.6478 6.15804 14.0294 6.43934 14.3107C6.72064 14.592 7.10218 14.75 7.5 14.75H8.5C8.83128 14.7484 9.1527 14.6371 9.4141 14.4336C9.67551 14.2301 9.86218 13.9458 9.945 13.625C10.5592 13.475 11.1292 13.1816 11.6081 12.7688C12.087 12.3559 12.4612 11.8354 12.7 11.25H13C13.3978 11.25 13.7794 11.092 14.0607 10.8107C14.342 10.5294 14.5 10.1478 14.5 9.75V7.75C14.5 7.35218 14.342 6.97064 14.0607 6.68934C13.7794 6.40804 13.3978 6.25 13 6.25ZM4.5 7.655V9.655C4.5 9.78761 4.44732 9.91479 4.35355 10.0086C4.25979 10.1023 4.13261 10.155 4 10.155H3C2.86739 10.155 2.74021 10.1023 2.64645 10.0086C2.55268 9.91479 2.5 9.78761 2.5 9.655V7.655C2.5 7.52239 2.55268 7.39521 2.64645 7.30145C2.74021 7.20768 2.86739 7.155 3 7.155H4C4.13261 7.155 4.25979 7.20768 4.35355 7.30145C4.44732 7.39521 4.5 7.52239 4.5 7.655ZM8.5 13.75H7.5C7.36739 13.75 7.24021 13.6973 7.14645 13.6036C7.05268 13.5098 7 13.3826 7 13.25C7 13.1174 7.05268 12.9902 7.14645 12.8964C7.24021 12.8027 7.36739 12.75 7.5 12.75H8.5C8.63261 12.75 8.75979 12.8027 8.85355 12.8964C8.94732 12.9902 9 13.1174 9 13.25C9 13.3826 8.94732 13.5098 8.85355 13.6036C8.75979 13.6973 8.63261 13.75 8.5 13.75ZM13.5 9.75C13.5 9.88261 13.4473 10.0098 13.3536 10.1036C13.2598 10.1973 13.1326 10.25 13 10.25H12C11.8674 10.25 11.7402 10.1973 11.6464 10.1036C11.5527 10.0098 11.5 9.88261 11.5 9.75V7.75C11.5 7.61739 11.5527 7.49021 11.6464 7.39645C11.7402 7.30268 11.8674 7.25 12 7.25H13C13.1326 7.25 13.2598 7.30268 13.3536 7.39645C13.4473 7.49021 13.5 7.61739 13.5 7.75V9.75Z" fill="#1F1F39"/>
</svg>
