<svg width="16" height="16" viewBox="0 0 16 16" fill="none" xmlns="http://www.w3.org/2000/svg">
<path d="M14.6666 8.00004C14.6666 4.32671 11.6733 1.33337 7.99992 1.33337C4.32659 1.33337 1.33325 4.32671 1.33325 8.00004C1.33325 9.93337 2.16659 11.6734 3.48659 12.8934C3.48659 12.9 3.48658 12.9 3.47992 12.9067C3.54659 12.9734 3.62659 13.0267 3.69325 13.0867C3.73325 13.12 3.76659 13.1534 3.80659 13.18C3.92659 13.28 4.05992 13.3734 4.18659 13.4667C4.23325 13.5 4.27325 13.5267 4.31992 13.56C4.44659 13.6467 4.57992 13.7267 4.71992 13.8C4.76659 13.8267 4.81992 13.86 4.86659 13.8867C4.99992 13.96 5.13992 14.0267 5.28658 14.0867C5.33992 14.1134 5.39325 14.14 5.44659 14.16C5.59325 14.22 5.73992 14.2734 5.88658 14.32C5.93992 14.34 5.99325 14.36 6.04658 14.3734C6.20658 14.42 6.36658 14.46 6.52659 14.5C6.57325 14.5134 6.61992 14.5267 6.67325 14.5334C6.85992 14.5734 7.04658 14.6 7.23992 14.62C7.26658 14.62 7.29325 14.6267 7.31992 14.6334C7.54658 14.6534 7.77325 14.6667 7.99992 14.6667C8.22658 14.6667 8.45325 14.6534 8.67325 14.6334C8.69992 14.6334 8.72658 14.6267 8.75325 14.62C8.94658 14.6 9.13325 14.5734 9.31992 14.5334C9.36658 14.5267 9.41325 14.5067 9.46658 14.5C9.62659 14.46 9.79325 14.4267 9.94658 14.3734C9.99992 14.3534 10.0533 14.3334 10.1066 14.32C10.2533 14.2667 10.4066 14.22 10.5466 14.16C10.5999 14.14 10.6533 14.1134 10.7066 14.0867C10.8466 14.0267 10.9866 13.96 11.1266 13.8867C11.1799 13.86 11.2266 13.8267 11.2733 13.8C11.4066 13.72 11.5399 13.6467 11.6733 13.56C11.7199 13.5334 11.7599 13.5 11.8066 13.4667C11.9399 13.3734 12.0666 13.28 12.1866 13.18C12.2266 13.1467 12.2599 13.1134 12.2999 13.0867C12.3733 13.0267 12.4466 12.9667 12.5133 12.9067C12.5133 12.9 12.5133 12.9 12.5066 12.8934C13.8333 11.6734 14.6666 9.93337 14.6666 8.00004ZM11.2933 11.3134C9.48658 10.1 6.52659 10.1 4.70658 11.3134C4.41325 11.5067 4.17325 11.7334 3.97325 11.98C2.95992 10.9534 2.33325 9.54671 2.33325 8.00004C2.33325 4.87337 4.87325 2.33337 7.99992 2.33337C11.1266 2.33337 13.6666 4.87337 13.6666 8.00004C13.6666 9.54671 13.0399 10.9534 12.0266 11.98C11.8333 11.7334 11.5866 11.5067 11.2933 11.3134Z" fill="#EE1D48"/>
<path d="M8 4.62C6.62 4.62 5.5 5.74 5.5 7.12C5.5 8.47333 6.56 9.57333 7.96667 9.61333C7.98667 9.61333 8.01333 9.61333 8.02667 9.61333C8.04 9.61333 8.06 9.61333 8.07333 9.61333C8.08 9.61333 8.08667 9.61333 8.08667 9.61333C9.43333 9.56666 10.4933 8.47333 10.5 7.12C10.5 5.74 9.38 4.62 8 4.62Z" fill="#EE1D48"/>
</svg>
