<svg width="16" height="16" viewBox="0 0 16 16" fill="none" xmlns="http://www.w3.org/2000/svg">
<path d="M14.6467 1.55329C14.1667 1.00663 13.4533 0.666626 12.6667 0.666626C11.92 0.666626 11.24 0.973293 10.7533 1.47329C10.4733 1.75996 10.26 2.10663 10.1333 2.49329C10.0467 2.75996 10 3.03996 10 3.33329C10 3.83329 10.14 4.30663 10.3867 4.70663C10.52 4.93329 10.6933 5.13996 10.8933 5.31329C11.36 5.73996 11.98 5.99996 12.6667 5.99996C12.96 5.99996 13.24 5.95329 13.5 5.85996C14.1133 5.66663 14.6267 5.24663 14.9467 4.70663C15.0867 4.47996 15.1933 4.21996 15.2533 3.95329C15.3067 3.75329 15.3333 3.54663 15.3333 3.33329C15.3333 2.65329 15.0733 2.02663 14.6467 1.55329ZM13.66 3.81996H13.1667V4.33996C13.1667 4.61329 12.94 4.83996 12.6667 4.83996C12.3933 4.83996 12.1667 4.61329 12.1667 4.33996V3.81996H11.6733C11.4 3.81996 11.1733 3.59329 11.1733 3.31996C11.1733 3.04663 11.4 2.81996 11.6733 2.81996H12.1667V2.34663C12.1667 2.07329 12.3933 1.84663 12.6667 1.84663C12.94 1.84663 13.1667 2.07329 13.1667 2.34663V2.81996H13.66C13.9333 2.81996 14.16 3.04663 14.16 3.31996C14.16 3.59329 13.94 3.81996 13.66 3.81996Z" fill="#EE1D48"/>
<path d="M14.6666 8.00004C14.6666 7.12671 14.4999 6.28671 14.1866 5.52004C13.9799 5.66671 13.7466 5.78004 13.4999 5.86004C13.4266 5.88671 13.3533 5.90671 13.2733 5.92671C13.5266 6.56671 13.6666 7.26671 13.6666 8.00004C13.6666 9.54671 13.0399 10.9534 12.0266 11.98C11.8333 11.7334 11.5866 11.5067 11.2933 11.3134C9.48658 10.1 6.52659 10.1 4.70658 11.3134C4.41325 11.5067 4.17325 11.7334 3.97325 11.98C2.95992 10.9534 2.33325 9.54671 2.33325 8.00004C2.33325 4.87337 4.87325 2.33337 7.99992 2.33337C8.72658 2.33337 9.42659 2.47337 10.0666 2.72671C10.0866 2.64671 10.1066 2.57337 10.1333 2.49337C10.2133 2.24671 10.3266 2.02004 10.4799 1.81337C9.71325 1.50004 8.87325 1.33337 7.99992 1.33337C4.32659 1.33337 1.33325 4.32671 1.33325 8.00004C1.33325 9.93337 2.16659 11.6734 3.48659 12.8934C3.48659 12.9 3.48658 12.9 3.47992 12.9067C3.54659 12.9734 3.62659 13.0267 3.69325 13.0867C3.73325 13.12 3.76659 13.1534 3.80659 13.18C3.92659 13.28 4.05992 13.3734 4.18659 13.4667C4.23325 13.5 4.27325 13.5267 4.31992 13.56C4.44659 13.6467 4.57992 13.7267 4.71992 13.8C4.76659 13.8267 4.81992 13.86 4.86659 13.8867C4.99992 13.96 5.13992 14.0267 5.28658 14.0867C5.33992 14.1134 5.39325 14.14 5.44659 14.16C5.59325 14.22 5.73992 14.2734 5.88658 14.32C5.93992 14.34 5.99325 14.36 6.04658 14.3734C6.20658 14.42 6.36658 14.46 6.52659 14.5C6.57325 14.5134 6.61992 14.5267 6.67325 14.5334C6.85992 14.5734 7.04658 14.6 7.23992 14.62C7.26658 14.62 7.29325 14.6267 7.31992 14.6334C7.54658 14.6534 7.77325 14.6667 7.99992 14.6667C8.22658 14.6667 8.45325 14.6534 8.67325 14.6334C8.69992 14.6334 8.72658 14.6267 8.75325 14.62C8.94658 14.6 9.13325 14.5734 9.31992 14.5334C9.36658 14.5267 9.41325 14.5067 9.46658 14.5C9.62659 14.46 9.79325 14.4267 9.94658 14.3734C9.99992 14.3534 10.0533 14.3334 10.1066 14.32C10.2533 14.2667 10.4066 14.22 10.5466 14.16C10.5999 14.14 10.6533 14.1134 10.7066 14.0867C10.8466 14.0267 10.9866 13.96 11.1266 13.8867C11.1799 13.86 11.2266 13.8267 11.2733 13.8C11.4066 13.72 11.5399 13.6467 11.6733 13.56C11.7199 13.5334 11.7599 13.5 11.8066 13.4667C11.9399 13.3734 12.0666 13.28 12.1866 13.18C12.2266 13.1467 12.2599 13.1134 12.2999 13.0867C12.3733 13.0267 12.4466 12.9667 12.5133 12.9067C12.5133 12.9 12.5133 12.9 12.5066 12.8934C13.8333 11.6734 14.6666 9.93337 14.6666 8.00004Z" fill="#EE1D48"/>
<path d="M8 4.62C6.62 4.62 5.5 5.74 5.5 7.12C5.5 8.47333 6.56 9.57333 7.96667 9.61333C7.98667 9.61333 8.01333 9.61333 8.02667 9.61333C8.04 9.61333 8.06 9.61333 8.07333 9.61333C8.08 9.61333 8.08667 9.61333 8.08667 9.61333C9.43333 9.56666 10.4933 8.47333 10.5 7.12C10.5 5.74 9.38 4.62 8 4.62Z" fill="#EE1D48"/>
</svg>
