<svg width="16" height="16" viewBox="0 0 16 16" fill="none" xmlns="http://www.w3.org/2000/svg">
<path d="M13.3066 5.97335C12.8599 5.48002 12.1866 5.19335 11.2532 5.09335V4.58668C11.2532 3.67335 10.8666 2.79335 10.1866 2.18001C9.49991 1.55335 8.60658 1.26001 7.67991 1.34668C6.08658 1.50001 4.74658 3.04001 4.74658 4.70668V5.09335C3.81325 5.19335 3.13991 5.48002 2.69325 5.97335C2.04658 6.69335 2.06658 7.65335 2.13991 8.32001L2.60658 12.0333C2.74658 13.3333 3.27325 14.6667 6.13991 14.6667H9.85991C12.7266 14.6667 13.2532 13.3333 13.3932 12.04L13.8599 8.31335C13.9332 7.65335 13.9466 6.69335 13.3066 5.97335ZM7.77324 2.27335C8.43991 2.21335 9.07325 2.42002 9.56658 2.86668C10.0532 3.30668 10.3266 3.93335 10.3266 4.58668V5.05335H5.67325V4.70668C5.67325 3.52002 6.65324 2.38002 7.77324 2.27335ZM5.61325 8.76668H5.60658C5.23991 8.76668 4.93991 8.46668 4.93991 8.10002C4.93991 7.73335 5.23991 7.43335 5.60658 7.43335C5.97991 7.43335 6.27991 7.73335 6.27991 8.10002C6.27991 8.46668 5.97991 8.76668 5.61325 8.76668ZM10.2799 8.76668H10.2732C9.90658 8.76668 9.60658 8.46668 9.60658 8.10002C9.60658 7.73335 9.90658 7.43335 10.2732 7.43335C10.6466 7.43335 10.9466 7.73335 10.9466 8.10002C10.9466 8.46668 10.6466 8.76668 10.2799 8.76668Z" fill="white"/>
</svg>
