<svg width="16" height="16" viewBox="0 0 16 16" fill="none" xmlns="http://www.w3.org/2000/svg">
<path d="M11.2 1.33337H9.46667C7.33333 1.33337 6 2.66671 6 4.80004V7.50004H8.96L7.58 6.12004C7.48 6.02004 7.43333 5.89337 7.43333 5.76671C7.43333 5.64004 7.48 5.51337 7.58 5.41337C7.77333 5.22004 8.09333 5.22004 8.28667 5.41337L10.52 7.64671C10.7133 7.84004 10.7133 8.16004 10.52 8.35337L8.28667 10.5867C8.09333 10.78 7.77333 10.78 7.58 10.5867C7.38667 10.3934 7.38667 10.0734 7.58 9.88004L8.96 8.50004H6V11.2C6 13.3334 7.33333 14.6667 9.46667 14.6667H11.1933C13.3267 14.6667 14.66 13.3334 14.66 11.2V4.80004C14.6667 2.66671 13.3333 1.33337 11.2 1.33337Z" fill="#EE1D48"/>
<path d="M1.83325 7.5C1.55992 7.5 1.33325 7.72667 1.33325 8C1.33325 8.27333 1.55992 8.5 1.83325 8.5H5.99992V7.5H1.83325Z" fill="#EE1D48"/>
</svg>
