<svg width="24" height="24" viewBox="0 0 24 24" fill="none" xmlns="http://www.w3.org/2000/svg">
<path d="M12.0004 6.86523C10.9848 6.86523 9.99201 7.16639 9.14758 7.73062C8.30315 8.29485 7.645 9.09681 7.25635 10.0351C6.8677 10.9734 6.76602 12.0058 6.96415 13.0019C7.16228 13.998 7.65133 14.9129 8.36946 15.631C9.08758 16.3492 10.0025 16.8382 10.9986 17.0363C11.9947 17.2345 13.0271 17.1328 13.9654 16.7441C14.9037 16.3555 15.7056 15.6973 16.2699 14.8529C16.8341 14.0085 17.1353 13.0157 17.1353 12.0001C17.1353 11.3258 17.0025 10.6581 16.7444 10.0351C16.4864 9.41207 16.1081 8.846 15.6313 8.36918C15.1545 7.89236 14.5884 7.51413 13.9654 7.25608C13.3424 6.99803 12.6747 6.86522 12.0004 6.86523ZM12.0004 15.3337C11.341 15.3337 10.6965 15.1382 10.1483 14.7719C9.60011 14.4056 9.17284 13.8849 8.92053 13.2758C8.66822 12.6667 8.60221 11.9964 8.73084 11.3497C8.85947 10.7031 9.17697 10.1091 9.64318 9.64287C10.1094 9.17666 10.7034 8.85917 11.35 8.73054C11.9967 8.60192 12.667 8.66794 13.2761 8.92026C13.8853 9.17258 14.4059 9.59986 14.7722 10.1481C15.1385 10.6963 15.334 11.3408 15.334 12.0001C15.334 12.4379 15.2478 12.8714 15.0803 13.2759C14.9128 13.6804 14.6673 14.0479 14.3577 14.3574C14.0481 14.667 13.6806 14.9126 13.2761 15.0801C12.8717 15.2476 12.4382 15.3338 12.0004 15.3337Z" fill="#EE1D48"/>
<path d="M21.9399 7.87719C21.9236 7.04765 21.7665 6.22691 21.4755 5.44993C21.2239 4.78282 20.8304 4.17837 20.322 3.67847C19.8229 3.16961 19.2186 2.77594 18.5514 2.525C17.7744 2.23378 16.9537 2.07673 16.1241 2.06054C15.0578 2.012 14.717 2 12.0013 2C9.28564 2 8.94451 2.01126 7.87767 2.06054C7.04814 2.07693 6.2274 2.23398 5.45042 2.525C4.78312 2.77617 4.17859 3.1698 3.67896 3.67847C3.16982 4.17771 2.77614 4.78235 2.52556 5.44993C2.23454 6.22692 2.07749 7.04765 2.0611 7.87719C2.01181 8.94341 2.00049 9.28432 2.00049 12C2.00049 14.7157 2.01181 15.0565 2.06108 16.1228C2.07748 16.9523 2.23453 17.7731 2.52556 18.5501C2.77621 19.2176 3.16988 19.8222 3.67896 20.3215C4.17884 20.8299 4.78329 21.2234 5.45042 21.4749C6.22743 21.7659 7.04815 21.9229 7.87767 21.9394C8.94451 21.9879 9.28481 22 12.0005 22C14.7162 22 15.0571 21.9887 16.1233 21.9394C16.9528 21.923 17.7736 21.766 18.5506 21.4749C19.215 21.2181 19.8183 20.8252 20.322 20.3215C20.8257 19.8178 21.2186 19.2145 21.4755 18.5501C21.7668 17.7732 21.9239 16.9523 21.9399 16.1228C21.9884 15.0558 21.9997 14.7157 21.9997 12C21.9997 9.28432 21.9884 8.94341 21.9399 7.87719ZM20.1409 16.0413C20.1333 16.6754 20.0169 17.3035 19.7969 17.8983C19.6305 18.3296 19.3756 18.7212 19.0487 19.048C18.7217 19.3748 18.33 19.6295 17.8987 19.7957C17.304 20.0162 16.6758 20.1326 16.0416 20.1397C14.9875 20.1882 14.6709 20.1979 12.0004 20.1979C9.32992 20.1979 9.0142 20.1882 7.96043 20.1397C7.32625 20.1325 6.69805 20.0161 6.10335 19.7957C5.669 19.6352 5.27601 19.3797 4.95311 19.0477C4.6207 18.7256 4.36505 18.3327 4.20511 17.8983C3.98463 17.3037 3.86826 16.6754 3.86111 16.0413C3.81261 14.9872 3.80296 14.6706 3.80296 12.0001C3.80296 9.32956 3.81345 9.01384 3.86111 7.95887C3.8691 7.32479 3.98544 6.69674 4.20511 6.10187C4.36562 5.66751 4.62118 5.27452 4.95311 4.95163C5.27544 4.61903 5.6686 4.36336 6.10335 4.20363C6.69803 3.98318 7.32624 3.86681 7.96043 3.85963C9.0145 3.81114 9.33111 3.80148 12.0004 3.80148C14.6697 3.80148 14.9867 3.81197 16.0416 3.85963C16.6757 3.86762 17.3038 3.98396 17.8987 4.20363C18.3302 4.36988 18.722 4.6247 19.0489 4.95164C19.3759 5.27859 19.6307 5.67043 19.7969 6.10188C20.0174 6.69654 20.1338 7.32472 20.1409 7.95888C20.1894 9.01388 20.1991 9.32962 20.1991 12.0001C20.1991 14.6705 20.1895 14.9863 20.141 16.0413H20.1409Z" fill="#EE1D48"/>
<path d="M17.3392 5.46191H17.3387C17.0205 5.46197 16.7154 5.58842 16.4905 5.81344C16.2655 6.03846 16.1391 6.34363 16.1392 6.66181C16.1392 6.98 16.2656 7.28514 16.4906 7.51012C16.7156 7.7351 17.0208 7.86149 17.3389 7.86149C17.6571 7.86149 17.9623 7.7351 18.1873 7.51012C18.4123 7.28514 18.5387 6.98 18.5387 6.66181C18.5388 6.34363 18.4124 6.03846 18.1874 5.81344C17.9625 5.58842 17.6574 5.46197 17.3392 5.46191Z" fill="#EE1D48"/>
</svg>
