<svg width="14" height="14" viewBox="0 0 14 14" fill="none" xmlns="http://www.w3.org/2000/svg">
<path d="M5.97191 1.37497C6.4383 0.599986 7.56186 0.599985 8.02825 1.37497L9.15178 3.24189C9.31933 3.5203 9.59263 3.71886 9.90919 3.79218L12.0319 4.28381C12.9131 4.48789 13.2603 5.55646 12.6674 6.23951L11.239 7.88495C11.026 8.13034 10.9216 8.45162 10.9497 8.77535L11.1381 10.9461C11.2163 11.8472 10.3073 12.5076 9.47449 12.1548L7.46819 11.3048C7.16899 11.1781 6.83117 11.1781 6.53197 11.3048L4.52568 12.1548C3.69283 12.5076 2.78386 11.8472 2.86206 10.9461L3.05045 8.77535C3.07855 8.45162 2.97416 8.13034 2.76115 7.88495L1.33279 6.23951C0.739863 5.55646 1.08706 4.48789 1.96824 4.28381L4.09097 3.79218C4.40753 3.71886 4.68083 3.5203 4.84838 3.24189L5.97191 1.37497Z" fill="#FFB006" stroke="#FFB006" stroke-width="1.5"/>
</svg>
