<svg width="14" height="14" viewBox="0 0 14 14" fill="none" xmlns="http://www.w3.org/2000/svg">
<path d="M11.6433 5.22689C11.2525 4.79523 10.6633 4.54439 9.84668 4.45689V4.01356C9.84668 3.21439 9.50835 2.44439 8.91335 1.90773C8.31251 1.35939 7.53085 1.10273 6.72001 1.17856C5.32585 1.31273 4.15335 2.66023 4.15335 4.11856V4.45689C3.33668 4.54439 2.74751 4.79523 2.35668 5.22689C1.79085 5.85689 1.80835 6.69689 1.87251 7.28023L2.28085 10.5294C2.40335 11.6669 2.86418 12.8336 5.37251 12.8336H8.62751C11.1358 12.8336 11.5967 11.6669 11.7192 10.5352L12.1275 7.27439C12.1917 6.69689 12.2033 5.85689 11.6433 5.22689ZM6.80168 1.98939C7.38501 1.93689 7.93918 2.11773 8.37085 2.50856C8.79668 2.89356 9.03585 3.44189 9.03585 4.01356V4.42189H4.96418V4.11856C4.96418 3.08023 5.82168 2.08273 6.80168 1.98939ZM4.91168 7.67106H4.90585C4.58501 7.67106 4.32251 7.40856 4.32251 7.08773C4.32251 6.76689 4.58501 6.50439 4.90585 6.50439C5.23251 6.50439 5.49501 6.76689 5.49501 7.08773C5.49501 7.40856 5.23251 7.67106 4.91168 7.67106ZM8.99501 7.67106H8.98918C8.66835 7.67106 8.40585 7.40856 8.40585 7.08773C8.40585 6.76689 8.66835 6.50439 8.98918 6.50439C9.31585 6.50439 9.57835 6.76689 9.57835 7.08773C9.57835 7.40856 9.31585 7.67106 8.99501 7.67106Z" fill="#EE1D48"/>
</svg>
