<svg width="20" height="20" viewBox="0 0 20 20" fill="none" xmlns="http://www.w3.org/2000/svg">
<path d="M6.66675 1.66699V4.16699" stroke="#6E7191" stroke-width="1.5" stroke-miterlimit="10" stroke-linecap="round" stroke-linejoin="round"/>
<path d="M13.3333 1.66699V4.16699" stroke="#6E7191" stroke-width="1.5" stroke-miterlimit="10" stroke-linecap="round" stroke-linejoin="round"/>
<path d="M2.91675 7.5752H17.0834" stroke="#6E7191" stroke-width="1.5" stroke-miterlimit="10" stroke-linecap="round" stroke-linejoin="round"/>
<path d="M18.3334 15.8333C18.3334 16.4583 18.1584 17.05 17.8501 17.55C17.2751 18.5167 16.2167 19.1667 15.0001 19.1667C14.1584 19.1667 13.3918 18.8583 12.8084 18.3333C12.5501 18.1167 12.3251 17.85 12.1501 17.55C11.8417 17.05 11.6667 16.4583 11.6667 15.8333C11.6667 13.9917 13.1584 12.5 15.0001 12.5C16.0001 12.5 16.8917 12.9417 17.5001 13.6333C18.0167 14.225 18.3334 14.9917 18.3334 15.8333Z" stroke="#6E7191" stroke-width="1.5" stroke-miterlimit="10" stroke-linecap="round" stroke-linejoin="round"/>
<path d="M13.7002 15.8333L14.5252 16.6583L16.3002 15.0166" stroke="#6E7191" stroke-width="1.5" stroke-linecap="round" stroke-linejoin="round"/>
<path d="M17.5 7.08366V13.6336C16.8917 12.942 16 12.5003 15 12.5003C13.1583 12.5003 11.6667 13.992 11.6667 15.8337C11.6667 16.4587 11.8417 17.0503 12.15 17.5503C12.325 17.8503 12.55 18.117 12.8083 18.3337H6.66667C3.75 18.3337 2.5 16.667 2.5 14.167V7.08366C2.5 4.58366 3.75 2.91699 6.66667 2.91699H13.3333C16.25 2.91699 17.5 4.58366 17.5 7.08366Z" stroke="#6E7191" stroke-width="1.5" stroke-miterlimit="10" stroke-linecap="round" stroke-linejoin="round"/>
<path d="M9.99632 11.4167H10.0038" stroke="#6E7191" stroke-width="2" stroke-linecap="round" stroke-linejoin="round"/>
<path d="M6.91185 11.4167H6.91933" stroke="#6E7191" stroke-width="2" stroke-linecap="round" stroke-linejoin="round"/>
<path d="M6.91185 13.9167H6.91933" stroke="#6E7191" stroke-width="2" stroke-linecap="round" stroke-linejoin="round"/>
</svg>
