<svg width="20" height="20" viewBox="0 0 20 20" fill="none" xmlns="http://www.w3.org/2000/svg">
<path d="M10.1334 9.05866C10.05 9.05033 9.95005 9.05033 9.85838 9.05866C7.87505 8.99199 6.30005 7.36699 6.30005 5.36699C6.30005 3.32533 7.95005 1.66699 10 1.66699C12.0417 1.66699 13.7001 3.32533 13.7001 5.36699C13.6917 7.36699 12.1167 8.99199 10.1334 9.05866Z" stroke="white" stroke-width="1.5" stroke-linecap="round" stroke-linejoin="round"/>
<path d="M5.9666 12.133C3.94993 13.483 3.94993 15.683 5.9666 17.0247C8.25827 18.558 12.0166 18.558 14.3083 17.0247C16.3249 15.6747 16.3249 13.4747 14.3083 12.133C12.0249 10.608 8.2666 10.608 5.9666 12.133Z" stroke="white" stroke-width="1.5" stroke-linecap="round" stroke-linejoin="round"/>
</svg>
