<svg width="20" height="20" viewBox="0 0 20 20" fill="none" xmlns="http://www.w3.org/2000/svg">
<path d="M16.4917 12.4416C14.775 14.1499 12.3167 14.6749 10.1584 13.9999L6.23337 17.9166C5.95004 18.2083 5.39171 18.3833 4.99171 18.3249L3.17504 18.0749C2.57504 17.9916 2.01671 17.4249 1.92504 16.8249L1.67504 15.0083C1.61671 14.6083 1.80837 14.0499 2.08337 13.7666L6.00004 9.84994C5.33337 7.68327 5.85004 5.22494 7.56671 3.5166C10.025 1.05827 14.0167 1.05827 16.4834 3.5166C18.95 5.97494 18.95 9.98327 16.4917 12.4416Z" stroke="#6E7191" stroke-width="1.5" stroke-miterlimit="10" stroke-linecap="round" stroke-linejoin="round"/>
<path d="M5.7417 14.5752L7.65837 16.4919" stroke="#6E7191" stroke-width="1.5" stroke-miterlimit="10" stroke-linecap="round" stroke-linejoin="round"/>
<path d="M12.0833 9.16699C12.7736 9.16699 13.3333 8.60735 13.3333 7.91699C13.3333 7.22664 12.7736 6.66699 12.0833 6.66699C11.3929 6.66699 10.8333 7.22664 10.8333 7.91699C10.8333 8.60735 11.3929 9.16699 12.0833 9.16699Z" stroke="#6E7191" stroke-width="1.5" stroke-linecap="round" stroke-linejoin="round"/>
</svg>
