<svg width="20" height="20" viewBox="0 0 20 20" fill="none" xmlns="http://www.w3.org/2000/svg">
<path d="M1.66675 8.33301H18.3334" stroke="#6E7191" stroke-width="1.5" stroke-miterlimit="10" stroke-linecap="round" stroke-linejoin="round"/>
<path d="M9.62365 17.0831H5.36533C2.40699 17.0831 1.65698 16.3498 1.65698 13.4248V6.57481C1.65698 3.92481 2.27367 3.07481 4.59867 2.94147C4.83201 2.93314 5.09033 2.9248 5.36533 2.9248H14.6236C17.582 2.9248 18.332 3.65814 18.332 6.58314V10.2581" stroke="#6E7191" stroke-width="1.5" stroke-linecap="round" stroke-linejoin="round"/>
<path d="M5 13.333H8.33333" stroke="#6E7191" stroke-width="1.5" stroke-miterlimit="10" stroke-linecap="round" stroke-linejoin="round"/>
<path d="M18.3334 15.0003C18.3334 15.6253 18.1584 16.217 17.8501 16.717C17.2751 17.6837 16.2167 18.3337 15.0001 18.3337C13.7834 18.3337 12.7251 17.6837 12.1501 16.717C11.8418 16.217 11.6667 15.6253 11.6667 15.0003C11.6667 13.1587 13.1584 11.667 15.0001 11.667C16.8417 11.667 18.3334 13.1587 18.3334 15.0003Z" stroke="#6E7191" stroke-width="1.5" stroke-miterlimit="10" stroke-linecap="round" stroke-linejoin="round"/>
<path d="M13.7012 14.9993L14.5262 15.8243L16.3012 14.1826" stroke="#6E7191" stroke-width="1.5" stroke-linecap="round" stroke-linejoin="round"/>
</svg>
