<svg width="24" height="24" viewBox="0 0 24 24" fill="none" xmlns="http://www.w3.org/2000/svg">
<g clip-path="url(#clip0_30661_1554)">
<path d="M12.0001 23.9998C18.6275 23.9998 24 18.6273 24 11.9999C24 5.37254 18.6275 0 12.0001 0C5.37278 0 0.000244141 5.37254 0.000244141 11.9999C0.000244141 18.6273 5.37278 23.9998 12.0001 23.9998Z" fill="white"/>
<path d="M19.3506 8.62387C18.8271 8.85583 18.2717 9.0079 17.703 9.07501C18.3021 8.71675 18.7505 8.15285 18.9645 7.48844C18.4014 7.82254 17.7854 8.05788 17.143 8.18429C16.8746 7.898 16.5502 7.6699 16.1899 7.51414C15.8297 7.35838 15.4413 7.27828 15.0488 7.27881C13.4651 7.27881 12.1805 8.56334 12.1805 10.1471C12.1805 10.3719 12.206 10.5908 12.2552 10.8008C9.87138 10.6813 7.75774 9.53941 6.34295 7.80353C6.08782 8.24129 5.95375 8.73904 5.95449 9.24571C5.95449 10.2406 6.46124 11.1189 7.23046 11.6332C6.77493 11.6191 6.32944 11.4959 5.93139 11.274L5.93117 11.3104C5.93117 12.7001 6.92029 13.8593 8.2322 14.1226C7.98598 14.1898 7.73188 14.2237 7.47667 14.2234C7.29142 14.2234 7.11195 14.2056 6.93697 14.1723C7.3019 15.3115 8.36097 16.1409 9.6164 16.1642C8.60029 16.9617 7.34544 17.3942 6.05374 17.392C5.82272 17.392 5.59384 17.3785 5.36987 17.3518C6.68112 18.1948 8.20748 18.6423 9.76635 18.6406C15.0422 18.6406 17.9274 14.27 17.9274 10.4793C17.9274 10.355 17.9246 10.2312 17.9191 10.1084C18.4809 9.70278 18.9656 9.20003 19.3506 8.62387Z" fill="#EE1D48"/>
</g>
<defs>
<clipPath id="clip0_30661_1554">
<rect width="24" height="24" fill="white"/>
</clipPath>
</defs>
</svg>
