<svg width="34" height="24" viewBox="0 0 34 24" fill="none" xmlns="http://www.w3.org/2000/svg">
<g clip-path="url(#clip0_30661_1557)">
<path fill-rule="evenodd" clip-rule="evenodd" d="M13.4428 16.4259L13.4414 6.83858L22.5967 11.6485L13.4428 16.4259ZM33.5435 5.17695C33.5435 5.17695 33.2118 2.82636 32.1967 1.79013C30.9078 0.430596 29.4642 0.424245 28.8021 0.345186C24.0607 9.65595e-06 16.9489 0 16.9489 0H16.9334C16.9334 0 9.82165 -6.90011e-06 5.08024 0.345875C4.41742 0.424228 2.97458 0.430596 1.68494 1.79013C0.669172 2.82565 0.338821 5.17695 0.338821 5.17695C0.338821 5.17695 0 7.93905 0 10.6998V13.2889C0 16.0503 0.338821 18.8111 0.338821 18.8111C0.338821 18.8111 0.669172 21.1623 1.68494 22.1979C2.97458 23.5574 4.66729 23.5151 5.42117 23.6569C8.13176 23.9188 16.9412 24 16.9412 24C16.9412 24 24.0607 23.9894 28.8021 23.6435C29.4642 23.5638 30.9078 23.5574 32.1967 22.1979C33.2125 21.1623 33.5435 18.8111 33.5435 18.8111C33.5435 18.8111 33.8824 16.0511 33.8824 13.2889V10.6998C33.8824 7.93905 33.5435 5.17695 33.5435 5.17695Z" fill="#EE1D48"/>
</g>
<defs>
<clipPath id="clip0_30661_1557">
<rect width="33.8824" height="24" fill="white"/>
</clipPath>
</defs>
</svg>
